ISO-10303-21;
HEADER;
FILE_DESCRIPTION (( 'STEP AP214' ),
    '1' );
FILE_NAME ('Link 3.STEP',
    '2026-07-17T02:33:55',
    ( '' ),
    ( '' ),
    'SwSTEP 2.0',
    'SolidWorks 2025',
    '' );
FILE_SCHEMA (( 'AUTOMOTIVE_DESIGN' ));
ENDSEC;

DATA;
#1 = CARTESIAN_POINT ( 'NONE',  ( -4.499999999999997335, 40.00000000000000000, 10.00000000000000000 ) ) ;
#2 = ORIENTED_EDGE ( 'NONE', *, *, #129, .F. ) ;
#3 = DIRECTION ( 'NONE',  ( 0.000000000000000000, 0.000000000000000000, 1.000000000000000000 ) ) ;
#4 = ORIENTED_EDGE ( 'NONE', *, *, #135, .F. ) ;
#5 = PRODUCT_DEFINITION_SHAPE ( 'NONE', 'NONE',  #459 ) ;
#6 = CARTESIAN_POINT ( 'NONE',  ( 0.000000000000000000, 80.00000000000000000, 10.00000000000000000 ) ) ;
#7 = CYLINDRICAL_SURFACE ( 'NONE', #318, 11.00000000000000000 ) ;
#8 = ADVANCED_FACE ( 'NONE', ( #73 ), #7, .F. ) ;
#9 = DIRECTION ( 'NONE',  ( 1.000000000000000000, 0.000000000000000000, 0.000000000000000000 ) ) ;
#10 = ORIENTED_EDGE ( 'NONE', *, *, #175, .F. ) ;
#11 = VECTOR ( 'NONE', #443, 1000.000000000000000 ) ;
#12 = PRODUCT_DEFINITION_CONTEXT ( 'detailed design', #449, 'design' ) ;
#13 = DIRECTION ( 'NONE',  ( 0.000000000000000000, 0.000000000000000000, 1.000000000000000000 ) ) ;
#14 = ORIENTED_EDGE ( 'NONE', *, *, #268, .F. ) ;
#15 = ADVANCED_FACE ( 'NONE', ( #430 ), #286, .T. ) ;
#16 = LINE ( 'NONE', #56, #295 ) ;
#17 = DIRECTION ( 'NONE',  ( 1.000000000000000000, 0.000000000000000000, 0.000000000000000000 ) ) ;
#18 = CARTESIAN_POINT ( 'NONE',  ( -41.89326337663934652, -64.59974589129897993, 950.0000000000075033 ) ) ;
#19 = DIRECTION ( 'NONE',  ( -0.000000000000000000, -0.000000000000000000, -1.000000000000000000 ) ) ;
#20 = CARTESIAN_POINT ( 'NONE',  ( 0.000000000000000000, 0.000000000000000000, 10.00000000000000000 ) ) ;
#21 = CARTESIAN_POINT ( 'NONE',  ( 11.00000000000000000, 1.347111479062088405E-15, 10.00000000000000000 ) ) ;
#22 = CARTESIAN_POINT ( 'NONE',  ( 30.00000000000000000, 0.000000000000000000, 0.000000000000000000 ) ) ;
#23 = LINE ( 'NONE', #456, #204 ) ;
#24 = ORIENTED_EDGE ( 'NONE', *, *, #340, .T. ) ;
#25 = CARTESIAN_POINT ( 'NONE',  ( 30.00000000000000000, 0.000000000000000000, 10.00000000000000000 ) ) ;
#26 = AXIS2_PLACEMENT_3D ( 'NONE', #18, #85, #328 ) ;
#27 = ORIENTED_EDGE ( 'NONE', *, *, #129, .T. ) ;
#28 = VERTEX_POINT ( 'NONE', #300 ) ;
#29 = ADVANCED_FACE ( 'NONE', ( #405 ), #126, .F. ) ;
#30 =( LENGTH_UNIT ( ) NAMED_UNIT ( * ) SI_UNIT ( .MILLI., .METRE. ) );
#31 = ORIENTED_EDGE ( 'NONE', *, *, #48, .T. ) ;
#32 = CARTESIAN_POINT ( 'NONE',  ( 0.000000000000000000, 80.00000000000000000, 0.000000000000000000 ) ) ;
#33 = ORIENTED_EDGE ( 'NONE', *, *, #193, .F. ) ;
#34 = APPLICATION_CONTEXT ( 'automotive_design' ) ;
#35 = DIRECTION ( 'NONE',  ( 0.000000000000000000, 0.000000000000000000, 1.000000000000000000 ) ) ;
#36 = AXIS2_PLACEMENT_3D ( 'NONE', #294, #440, #122 ) ;
#37 = DIRECTION ( 'NONE',  ( -0.000000000000000000, -0.000000000000000000, -1.000000000000000000 ) ) ;
#38 = DIRECTION ( 'NONE',  ( -0.000000000000000000, -0.000000000000000000, -1.000000000000000000 ) ) ;
#39 = EDGE_LOOP ( 'NONE', ( #455, #201, #75, #14 ) ) ;
#40 = EDGE_CURVE ( 'NONE', #309, #63, #446, .T. ) ;
#41 = DIRECTION ( 'NONE',  ( -0.000000000000000000, -1.000000000000000000, -0.000000000000000000 ) ) ;
#42 = ORIENTED_EDGE ( 'NONE', *, *, #61, .F. ) ;
#43 = AXIS2_PLACEMENT_3D ( 'NONE', #57, #49, #296 ) ;
#44 = FACE_OUTER_BOUND ( 'NONE', #384, .T. ) ;
#45 = VERTEX_POINT ( 'NONE', #329 ) ;
#46 =( REPRESENTATION_RELATIONSHIP ('NONE','NONE', #343, #441 ) REPRESENTATION_RELATIONSHIP_WITH_TRANSFORMATION ( #262 )SHAPE_REPRESENTATION_RELATIONSHIP( ) );
#47 = VECTOR ( 'NONE', #266, 1000.000000000000000 ) ;
#48 = EDGE_CURVE ( 'NONE', #65, #252, #195, .T. ) ;
#49 = DIRECTION ( 'NONE',  ( 0.000000000000000000, 0.000000000000000000, 1.000000000000000000 ) ) ;
#50 = FACE_OUTER_BOUND ( 'NONE', #382, .T. ) ;
#51 = DIRECTION ( 'NONE',  ( 1.000000000000000000, 0.000000000000000000, 0.000000000000000000 ) ) ;
#52 = AXIS2_PLACEMENT_3D ( 'NONE', #107, #391, #218 ) ;
#53 = CYLINDRICAL_SURFACE ( 'NONE', #127, 4.499999999999997335 ) ;
#54 = CLOSED_SHELL ( 'NONE', ( #160, #8, #144, #255, #290, #15, #325, #452, #151, #228, #272, #29 ) ) ;
#55 = SHAPE_DEFINITION_REPRESENTATION ( #71, #343 ) ;
#56 = CARTESIAN_POINT ( 'NONE',  ( 30.00000000000000000, 0.000000000000000000, 0.000000000000000000 ) ) ;
#57 = CARTESIAN_POINT ( 'NONE',  ( 0.000000000000000000, 0.000000000000000000, 0.000000000000000000 ) ) ;
#58 = CARTESIAN_POINT ( 'NONE',  ( 0.000000000000000000, 0.000000000000000000, 10.00000000000000000 ) ) ;
#59 = AXIS2_PLACEMENT_3D ( 'NONE', #424, #247, #395 ) ;
#60 = MECHANICAL_DESIGN_GEOMETRIC_PRESENTATION_REPRESENTATION (  '', ( #324 ), #390 ) ;
#61 = EDGE_CURVE ( 'NONE', #63, #309, #197, .T. ) ;
#62 = FACE_BOUND ( 'NONE', #245, .T. ) ;
#63 = VERTEX_POINT ( 'NONE', #406 ) ;
#64 = DIRECTION ( 'NONE',  ( -0.000000000000000000, -0.000000000000000000, -1.000000000000000000 ) ) ;
#65 = VERTEX_POINT ( 'NONE', #263 ) ;
#66 = DIRECTION ( 'NONE',  ( -1.000000000000000000, 0.000000000000000000, 0.000000000000000000 ) ) ;
#67 = APPLICATION_CONTEXT ( 'automotive_design' ) ;
#68 = VECTOR ( 'NONE', #64, 1000.000000000000000 ) ;
#69 = DIRECTION ( 'NONE',  ( -0.000000000000000000, -0.000000000000000000, -1.000000000000000000 ) ) ;
#70 = CARTESIAN_POINT ( 'NONE',  ( 0.000000000000000000, 0.000000000000000000, 10.00000000000000000 ) ) ;
#71 = PRODUCT_DEFINITION_SHAPE ( 'NONE', 'NONE',  #123 ) ;
#72 = CARTESIAN_POINT ( 'NONE',  ( 11.00000000000000000, 1.347111479062088405E-15, 10.00000000000000000 ) ) ;
#73 = FACE_OUTER_BOUND ( 'NONE', #143, .T. ) ;
#74 = AXIS2_PLACEMENT_3D ( 'NONE', #20, #158, #257 ) ;
#75 = ORIENTED_EDGE ( 'NONE', *, *, #206, .F. ) ;
#76 = PLANE ( 'NONE',  #303 ) ;
#77 = EDGE_LOOP ( 'NONE', ( #422, #24, #31, #104 ) ) ;
#78 = CARTESIAN_POINT ( 'NONE',  ( 0.000000000000000000, 40.00000000000000000, 0.000000000000000000 ) ) ;
#79 = VERTEX_POINT ( 'NONE', #448 ) ;
#80 = EDGE_CURVE ( 'NONE', #357, #400, #389, .T. ) ;
#81 = VECTOR ( 'NONE', #41, 1000.000000000000000 ) ;
#82 = DIRECTION ( 'NONE',  ( 1.000000000000000000, 0.000000000000000000, 0.000000000000000000 ) ) ;
#83 = APPLICATION_PROTOCOL_DEFINITION ( 'draft international standard', 'automotive_design', 1998, #67 ) ;
#84 = DIRECTION ( 'NONE',  ( 1.000000000000000000, 0.000000000000000000, 0.000000000000000000 ) ) ;
#85 = DIRECTION ( 'NONE',  ( 0.000000000000000000, 0.000000000000000000, 1.000000000000000000 ) ) ;
#86 = FACE_OUTER_BOUND ( 'NONE', #153, .T. ) ;
#87 = VECTOR ( 'NONE', #353, 1000.000000000000000 ) ;
#88 = SHAPE_DEFINITION_REPRESENTATION ( #116, #441 ) ;
#89 = EDGE_CURVE ( 'NONE', #321, #132, #232, .T. ) ;
#90 = CARTESIAN_POINT ( 'NONE',  ( 0.000000000000000000, 0.000000000000000000, 0.000000000000000000 ) ) ;
#91 = CARTESIAN_POINT ( 'NONE',  ( 30.00000000000000000, 0.000000000000000000, 10.00000000000000000 ) ) ;
#92 = SURFACE_STYLE_USAGE ( .BOTH. , #134 ) ;
#93 = AXIS2_PLACEMENT_3D ( 'NONE', #32, #35, #287 ) ;
#94 = CARTESIAN_POINT ( 'NONE',  ( 0.000000000000000000, 40.00000000000000000, 10.00000000000000000 ) ) ;
#95 = AXIS2_PLACEMENT_3D ( 'NONE', #94, #413, #271 ) ;
#96 =( NAMED_UNIT ( * ) SI_UNIT ( $, .STERADIAN. ) SOLID_ANGLE_UNIT ( ) );
#97 = ORIENTED_EDGE ( 'NONE', *, *, #233, .T. ) ;
#98 = CARTESIAN_POINT ( 'NONE',  ( 4.499999999999997335, 40.00000000000000000, 10.00000000000000000 ) ) ;
#99 = ORIENTED_EDGE ( 'NONE', *, *, #239, .F. ) ;
#100 = DIRECTION ( 'NONE',  ( 0.000000000000000000, 0.000000000000000000, 1.000000000000000000 ) ) ;
#101 = AXIS2_PLACEMENT_3D ( 'NONE', #260, #225, #439 ) ;
#102 = ORIENTED_EDGE ( 'NONE', *, *, #135, .T. ) ;
#103 = DIRECTION ( 'NONE',  ( -0.000000000000000000, -0.000000000000000000, -1.000000000000000000 ) ) ;
#104 = ORIENTED_EDGE ( 'NONE', *, *, #432, .F. ) ;
#105 = DIRECTION ( 'NONE',  ( 0.000000000000000000, 0.000000000000000000, 1.000000000000000000 ) ) ;
#106 = ORIENTED_EDGE ( 'NONE', *, *, #89, .F. ) ;
#107 = CARTESIAN_POINT ( 'NONE',  ( 0.000000000000000000, 0.000000000000000000, 10.00000000000000000 ) ) ;
#108 = AXIS2_PLACEMENT_3D ( 'NONE', #322, #13, #362 ) ;
#109 = VERTEX_POINT ( 'NONE', #336 ) ;
#110 = LINE ( 'NONE', #1, #176 ) ;
#111 = CARTESIAN_POINT ( 'NONE',  ( 0.000000000000000000, 0.000000000000000000, 10.00000000000000000 ) ) ;
#112 = DIRECTION ( 'NONE',  ( 1.000000000000000000, 0.000000000000000000, 0.000000000000000000 ) ) ;
#113 = EDGE_CURVE ( 'NONE', #357, #79, #259, .T. ) ;
#114 = VERTEX_POINT ( 'NONE', #368 ) ;
#115 = PRODUCT_DEFINITION_CONTEXT ( 'detailed design', #67, 'design' ) ;
#116 = PRODUCT_DEFINITION_SHAPE ( 'NONE', 'NONE',  #249 ) ;
#117 = ORIENTED_EDGE ( 'NONE', *, *, #233, .F. ) ;
#118 = CIRCLE ( 'NONE', #332, 11.00000000000000000 ) ;
#119 = DIRECTION ( 'NONE',  ( 1.000000000000000000, 0.000000000000000000, 0.000000000000000000 ) ) ;
#120 = CARTESIAN_POINT ( 'NONE',  ( 0.000000000000000000, 40.00000000000000000, 10.00000000000000000 ) ) ;
#121 = CONTEXT_DEPENDENT_SHAPE_REPRESENTATION ( #46, #5 ) ;
#122 = DIRECTION ( 'NONE',  ( 1.000000000000000000, 0.000000000000000000, 0.000000000000000000 ) ) ;
#123 = PRODUCT_DEFINITION ( 'UNKNOWN', '', #269, #12 ) ;
#124 = APPLICATION_PROTOCOL_DEFINITION ( 'draft international standard', 'automotive_design', 1998, #34 ) ;
#125 = CARTESIAN_POINT ( 'NONE',  ( 0.000000000000000000, 80.00000000000000000, 0.000000000000000000 ) ) ;
#126 = CYLINDRICAL_SURFACE ( 'NONE', #379, 11.00000000000000000 ) ;
#127 = AXIS2_PLACEMENT_3D ( 'NONE', #120, #19, #338 ) ;
#128 = DIRECTION ( 'NONE',  ( -0.000000000000000000, -0.000000000000000000, -1.000000000000000000 ) ) ;
#129 = EDGE_CURVE ( 'NONE', #237, #321, #16, .T. ) ;
#130 = DIRECTION ( 'NONE',  ( 1.000000000000000000, 0.000000000000000000, -0.000000000000000000 ) ) ;
#131 = ORIENTED_EDGE ( 'NONE', *, *, #206, .T. ) ;
#132 = VERTEX_POINT ( 'NONE', #251 ) ;
#133 = FACE_BOUND ( 'NONE', #154, .T. ) ;
#134 = SURFACE_SIDE_STYLE ('',( #414 ) ) ;
#135 = EDGE_CURVE ( 'NONE', #327, #237, #358, .T. ) ;
#136 = LINE ( 'NONE', #25, #47 ) ;
#137 = UNCERTAINTY_MEASURE_WITH_UNIT (LENGTH_MEASURE( 1.000000000000000082E-05 ), #148, 'distance_accuracy_value', 'NONE');
#138 = DIRECTION ( 'NONE',  ( -0.000000000000000000, -0.000000000000000000, -1.000000000000000000 ) ) ;
#139 = CIRCLE ( 'NONE', #93, 11.00000000000000000 ) ;
#140 = ORIENTED_EDGE ( 'NONE', *, *, #376, .F. ) ;
#141 = VECTOR ( 'NONE', #339, 1000.000000000000000 ) ;
#142 = CARTESIAN_POINT ( 'NONE',  ( 0.000000000000000000, 80.00000000000000000, 10.00000000000000000 ) ) ;
#143 = EDGE_LOOP ( 'NONE', ( #243, #366, #33, #396 ) ) ;
#144 = ADVANCED_FACE ( 'NONE', ( #50 ), #53, .F. ) ;
#145 = LINE ( 'NONE', #275, #81 ) ;
#146 = ORIENTED_EDGE ( 'NONE', *, *, #376, .T. ) ;
#147 = PRODUCT_DEFINITION_SHAPE ( 'NONE', 'NONE',  #458 ) ;
#148 =( LENGTH_UNIT ( ) NAMED_UNIT ( * ) SI_UNIT ( .MILLI., .METRE. ) );
#149 = DIRECTION ( 'NONE',  ( -1.000000000000000000, 0.000000000000000000, 0.000000000000000000 ) ) ;
#150 = ADVANCED_BREP_SHAPE_REPRESENTATION ( '', ( #264, #43 ), #378 ) ;
#151 = ADVANCED_FACE ( 'NONE', ( #86 ), #189, .F. ) ;
#152 = CARTESIAN_POINT ( 'NONE',  ( -11.00000000000000000, 0.000000000000000000, 10.00000000000000000 ) ) ;
#153 = EDGE_LOOP ( 'NONE', ( #146, #181, #393, #167 ) ) ;
#154 = EDGE_LOOP ( 'NONE', ( #398, #454 ) ) ;
#155 = CARTESIAN_POINT ( 'NONE',  ( -41.89326337663934652, -64.59974589129897993, 1000.000000000007503 ) ) ;
#156 = CARTESIAN_POINT ( 'NONE',  ( -30.00000000000000000, 0.000000000000000000, 10.00000000000000000 ) ) ;
#157 =( GEOMETRIC_REPRESENTATION_CONTEXT ( 3 ) GLOBAL_UNCERTAINTY_ASSIGNED_CONTEXT ( ( #274 ) ) GLOBAL_UNIT_ASSIGNED_CONTEXT ( ( #407, #299, #194 ) ) REPRESENTATION_CONTEXT ( 'NONE', 'WORKASPACE' ) );
#158 = DIRECTION ( 'NONE',  ( -0.000000000000000000, -0.000000000000000000, -1.000000000000000000 ) ) ;
#159 = AXIS2_PLACEMENT_3D ( 'NONE', #411, #298, #51 ) ;
#160 = ADVANCED_FACE ( 'NONE', ( #333 ), #187, .F. ) ;
#161 = CARTESIAN_POINT ( 'NONE',  ( 30.00000000000000000, 0.000000000000000000, 10.00000000000000000 ) ) ;
#162 = DIRECTION ( 'NONE',  ( 0.000000000000000000, 0.000000000000000000, 1.000000000000000000 ) ) ;
#163 = DIRECTION ( 'NONE',  ( 0.000000000000000000, 0.000000000000000000, 1.000000000000000000 ) ) ;
#164 = AXIS2_PLACEMENT_3D ( 'NONE', #230, #170, #451 ) ;
#165 = PLANE ( 'NONE',  #241 ) ;
#166 = LINE ( 'NONE', #234, #404 ) ;
#167 = ORIENTED_EDGE ( 'NONE', *, *, #239, .T. ) ;
#168 = VECTOR ( 'NONE', #280, 1000.000000000000000 ) ;
#169 = VERTEX_POINT ( 'NONE', #161 ) ;
#170 = DIRECTION ( 'NONE',  ( 0.000000000000000000, 0.000000000000000000, 1.000000000000000000 ) ) ;
#171 = ORIENTED_EDGE ( 'NONE', *, *, #350, .F. ) ;
#172 = DIRECTION ( 'NONE',  ( 1.000000000000000000, 0.000000000000000000, -0.000000000000000000 ) ) ;
#173 = ORIENTED_EDGE ( 'NONE', *, *, #40, .T. ) ;
#174 = CARTESIAN_POINT ( 'NONE',  ( 11.00000000000000000, 80.00000000000000000, 10.00000000000000000 ) ) ;
#175 = EDGE_CURVE ( 'NONE', #169, #237, #192, .T. ) ;
#176 = VECTOR ( 'NONE', #360, 1000.000000000000000 ) ;
#177 = ORIENTED_EDGE ( 'NONE', *, *, #284, .F. ) ;
#178 = APPLICATION_CONTEXT ( 'automotive_design' ) ;
#179 = CARTESIAN_POINT ( 'NONE',  ( -30.00000000000000000, 80.00000000000000000, 10.00000000000000000 ) ) ;
#180 = ORIENTED_EDGE ( 'NONE', *, *, #284, .T. ) ;
#181 = ORIENTED_EDGE ( 'NONE', *, *, #386, .F. ) ;
#182 = LINE ( 'NONE', #426, #301 ) ;
#183 = VECTOR ( 'NONE', #38, 1000.000000000000000 ) ;
#184 = EDGE_LOOP ( 'NONE', ( #171, #173, #427, #363 ) ) ;
#185 = DIRECTION ( 'NONE',  ( 1.000000000000000000, 0.000000000000000000, 0.000000000000000000 ) ) ;
#186 = ORIENTED_EDGE ( 'NONE', *, *, #418, .T. ) ;
#187 = CYLINDRICAL_SURFACE ( 'NONE', #74, 11.00000000000000000 ) ;
#188 = PRODUCT_RELATED_PRODUCT_CATEGORY ( 'part', '', ( #359 ) ) ;
#189 = PLANE ( 'NONE',  #397 ) ;
#190 = DIRECTION ( 'NONE',  ( 1.000000000000000000, 0.000000000000000000, 0.000000000000000000 ) ) ;
#191 = CIRCLE ( 'NONE', #335, 11.00000000000000000 ) ;
#192 = LINE ( 'NONE', #91, #11 ) ;
#193 = EDGE_CURVE ( 'NONE', #252, #114, #212, .T. ) ;
#194 =( NAMED_UNIT ( * ) SI_UNIT ( $, .STERADIAN. ) SOLID_ANGLE_UNIT ( ) );
#195 = LINE ( 'NONE', #227, #277 ) ;
#196 = DIRECTION ( 'NONE',  ( -0.000000000000000000, -0.000000000000000000, -1.000000000000000000 ) ) ;
#197 = CIRCLE ( 'NONE', #341, 4.499999999999997335 ) ;
#198 = CARTESIAN_POINT ( 'NONE',  ( 0.000000000000000000, 0.000000000000000000, 10.00000000000000000 ) ) ;
#199 = EDGE_LOOP ( 'NONE', ( #291, #99, #323, #180 ) ) ;
#200 = FACE_OUTER_BOUND ( 'NONE', #208, .T. ) ;
#201 = ORIENTED_EDGE ( 'NONE', *, *, #113, .T. ) ;
#202 = CIRCLE ( 'NONE', #52, 30.00000000000000000 ) ;
#203 = FACE_OUTER_BOUND ( 'NONE', #320, .T. ) ;
#204 = VECTOR ( 'NONE', #69, 1000.000000000000000 ) ;
#205 = EDGE_LOOP ( 'NONE', ( #214, #220, #354, #415 ) ) ;
#206 = EDGE_CURVE ( 'NONE', #317, #79, #191, .T. ) ;
#207 = CARTESIAN_POINT ( 'NONE',  ( 4.499999999999997335, 40.00000000000000000, 10.00000000000000000 ) ) ;
#208 = EDGE_LOOP ( 'NONE', ( #4, #140, #106, #2 ) ) ;
#209 = DIRECTION ( 'NONE',  ( 1.000000000000000000, 0.000000000000000000, 0.000000000000000000 ) ) ;
#210 = PRODUCT_DEFINITION_FORMATION_WITH_SPECIFIED_SOURCE ( 'ANY', '', #281, .NOT_KNOWN. ) ;
#211 = CARTESIAN_POINT ( 'NONE',  ( 0.000000000000000000, 80.00000000000000000, 10.00000000000000000 ) ) ;
#212 = CIRCLE ( 'NONE', #348, 11.00000000000000000 ) ;
#213 = DIRECTION ( 'NONE',  ( -1.000000000000000000, 0.000000000000000000, 0.000000000000000000 ) ) ;
#214 = ORIENTED_EDGE ( 'NONE', *, *, #113, .F. ) ;
#215 = CARTESIAN_POINT ( 'NONE',  ( -30.00000000000000000, 0.000000000000000000, 0.000000000000000000 ) ) ;
#216 = ORIENTED_EDGE ( 'NONE', *, *, #423, .T. ) ;
#217 = PRODUCT_RELATED_PRODUCT_CATEGORY ( 'part', '', ( #281 ) ) ;
#218 = DIRECTION ( 'NONE',  ( 1.000000000000000000, 0.000000000000000000, 0.000000000000000000 ) ) ;
#219 = CIRCLE ( 'NONE', #293, 4.499999999999997335 ) ;
#220 = ORIENTED_EDGE ( 'NONE', *, *, #80, .T. ) ;
#221 =( NAMED_UNIT ( * ) PLANE_ANGLE_UNIT ( ) SI_UNIT ( $, .RADIAN. ) );
#222 = DIRECTION ( 'NONE',  ( 0.000000000000000000, 0.000000000000000000, 1.000000000000000000 ) ) ;
#223 = ITEM_DEFINED_TRANSFORMATION ( 'NONE', 'NONE', #331,  #43 ) ;
#224 = DIRECTION ( 'NONE',  ( 0.000000000000000000, 0.000000000000000000, 1.000000000000000000 ) ) ;
#225 = DIRECTION ( 'NONE',  ( 0.000000000000000000, 0.000000000000000000, 1.000000000000000000 ) ) ;
#226 = CARTESIAN_POINT ( 'NONE',  ( 0.000000000000000000, 0.000000000000000000, 10.00000000000000000 ) ) ;
#227 = CARTESIAN_POINT ( 'NONE',  ( -11.00000000000000000, 80.00000000000000000, 10.00000000000000000 ) ) ;
#228 = ADVANCED_FACE ( 'NONE', ( #375 ), #236, .F. ) ;
#229 = DIRECTION ( 'NONE',  ( 1.000000000000000000, 0.000000000000000000, 0.000000000000000000 ) ) ;
#230 = CARTESIAN_POINT ( 'NONE',  ( 0.000000000000000000, 40.00000000000000000, 0.000000000000000000 ) ) ;
#231 = CARTESIAN_POINT ( 'NONE',  ( -30.00000000000000000, 0.000000000000000000, 10.00000000000000000 ) ) ;
#232 = CIRCLE ( 'NONE', #36, 30.00000000000000000 ) ;
#233 = EDGE_CURVE ( 'NONE', #434, #28, #453, .T. ) ;
#234 = CARTESIAN_POINT ( 'NONE',  ( -30.00000000000000000, 80.00000000000000000, 10.00000000000000000 ) ) ;
#235 = EDGE_LOOP ( 'NONE', ( #97, #250 ) ) ;
#236 = CYLINDRICAL_SURFACE ( 'NONE', #95, 4.499999999999997335 ) ;
#237 = VERTEX_POINT ( 'NONE', #22 ) ;
#238 = FACE_BOUND ( 'NONE', #425, .T. ) ;
#239 = EDGE_CURVE ( 'NONE', #387, #132, #166, .T. ) ;
#240 = AXIS2_PLACEMENT_3D ( 'NONE', #111, #128, #265 ) ;
#241 = AXIS2_PLACEMENT_3D ( 'NONE', #304, #450, #130 ) ;
#242 = DIRECTION ( 'NONE',  ( 0.000000000000000000, 0.000000000000000000, 1.000000000000000000 ) ) ;
#243 = ORIENTED_EDGE ( 'NONE', *, *, #412, .T. ) ;
#244 = DIRECTION ( 'NONE',  ( 1.000000000000000000, 0.000000000000000000, 0.000000000000000000 ) ) ;
#245 = EDGE_LOOP ( 'NONE', ( #361, #288 ) ) ;
#246 =( REPRESENTATION_RELATIONSHIP ('NONE','NONE', #343, #441 ) REPRESENTATION_RELATIONSHIP_WITH_TRANSFORMATION ( #223 )SHAPE_REPRESENTATION_RELATIONSHIP( ) );
#247 = DIRECTION ( 'NONE',  ( -0.000000000000000000, -0.000000000000000000, -1.000000000000000000 ) ) ;
#248 = ORIENTED_EDGE ( 'NONE', *, *, #305, .F. ) ;
#249 = PRODUCT_DEFINITION ( 'UNKNOWN', '', #210, #115 ) ;
#250 = ORIENTED_EDGE ( 'NONE', *, *, #356, .T. ) ;
#251 = CARTESIAN_POINT ( 'NONE',  ( -30.00000000000000000, 80.00000000000000000, 0.000000000000000000 ) ) ;
#252 = VERTEX_POINT ( 'NONE', #380 ) ;
#253 = PRODUCT_CONTEXT ( 'NONE', #34, 'mechanical' ) ;
#254 = ORIENTED_EDGE ( 'NONE', *, *, #193, .T. ) ;
#255 = ADVANCED_FACE ( 'NONE', ( #133, #203, #419, #62 ), #351, .T. ) ;
#256 = COLOUR_RGB ( '',0.7921568627450980005, 0.8196078431372548767, 0.9333333333333333481 ) ;
#257 = DIRECTION ( 'NONE',  ( -1.000000000000000000, 0.000000000000000000, 0.000000000000000000 ) ) ;
#258 = CARTESIAN_POINT ( 'NONE',  ( 0.000000000000000000, 0.000000000000000000, 0.000000000000000000 ) ) ;
#259 = LINE ( 'NONE', #21, #141 ) ;
#260 = CARTESIAN_POINT ( 'NONE',  ( 0.000000000000000000, 0.000000000000000000, 0.000000000000000000 ) ) ;
#261 = DIRECTION ( 'NONE',  ( 0.000000000000000000, 0.000000000000000000, 1.000000000000000000 ) ) ;
#262 = ITEM_DEFINED_TRANSFORMATION ( 'NONE', 'NONE', #26,  #43 ) ;
#263 = CARTESIAN_POINT ( 'NONE',  ( -11.00000000000000000, 80.00000000000000000, 10.00000000000000000 ) ) ;
#264 = MANIFOLD_SOLID_BREP ( 'Saliente-Extruir1', #54 ) ;
#265 = DIRECTION ( 'NONE',  ( -1.000000000000000000, 0.000000000000000000, 0.000000000000000000 ) ) ;
#266 = DIRECTION ( 'NONE',  ( 0.000000000000000000, 1.000000000000000000, 0.000000000000000000 ) ) ;
#267 = ORIENTED_EDGE ( 'NONE', *, *, #175, .T. ) ;
#268 = EDGE_CURVE ( 'NONE', #400, #317, #23, .T. ) ;
#269 = PRODUCT_DEFINITION_FORMATION_WITH_SPECIFIED_SOURCE ( 'ANY', '', #359, .NOT_KNOWN. ) ;
#270 = ORIENTED_EDGE ( 'NONE', *, *, #432, .T. ) ;
#271 = DIRECTION ( 'NONE',  ( -1.000000000000000000, 0.000000000000000000, 0.000000000000000000 ) ) ;
#272 = ADVANCED_FACE ( 'NONE', ( #306 ), #416, .F. ) ;
#273 = AXIS2_PLACEMENT_3D ( 'NONE', #70, #105, #185 ) ;
#274 = UNCERTAINTY_MEASURE_WITH_UNIT (LENGTH_MEASURE( 1.000000000000000082E-05 ), #407, 'distance_accuracy_value', 'NONE');
#275 = CARTESIAN_POINT ( 'NONE',  ( -30.00000000000000000, 0.000000000000000000, 0.000000000000000000 ) ) ;
#276 = ORIENTED_EDGE ( 'NONE', *, *, #364, .T. ) ;
#277 = VECTOR ( 'NONE', #372, 1000.000000000000000 ) ;
#278 = FACE_OUTER_BOUND ( 'NONE', #199, .T. ) ;
#279 = ORIENTED_EDGE ( 'NONE', *, *, #61, .T. ) ;
#280 = DIRECTION ( 'NONE',  ( -0.000000000000000000, -0.000000000000000000, -1.000000000000000000 ) ) ;
#281 = PRODUCT ( 'Tercer eslabon pared', 'Tercer eslabon pared', '', ( #435 ) ) ;
#282 = EDGE_LOOP ( 'NONE', ( #42, #352 ) ) ;
#283 = UNCERTAINTY_MEASURE_WITH_UNIT (LENGTH_MEASURE( 1.000000000000000082E-05 ), #30, 'distance_accuracy_value', 'NONE');
#284 = EDGE_CURVE ( 'NONE', #45, #321, #383, .T. ) ;
#285 = DIRECTION ( 'NONE',  ( 0.000000000000000000, 0.000000000000000000, 1.000000000000000000 ) ) ;
#286 = CYLINDRICAL_SURFACE ( 'NONE', #240, 30.00000000000000000 ) ;
#287 = DIRECTION ( 'NONE',  ( 1.000000000000000000, 0.000000000000000000, 0.000000000000000000 ) ) ;
#288 = ORIENTED_EDGE ( 'NONE', *, *, #80, .F. ) ;
#289 = DIRECTION ( 'NONE',  ( 0.000000000000000000, 0.000000000000000000, 1.000000000000000000 ) ) ;
#290 = ADVANCED_FACE ( 'NONE', ( #200, #345, #238, #420 ), #165, .F. ) ;
#291 = ORIENTED_EDGE ( 'NONE', *, *, #89, .T. ) ;
#292 = DIRECTION ( 'NONE',  ( 1.000000000000000000, 0.000000000000000000, 0.000000000000000000 ) ) ;
#293 = AXIS2_PLACEMENT_3D ( 'NONE', #78, #392, #9 ) ;
#294 = CARTESIAN_POINT ( 'NONE',  ( 0.000000000000000000, 80.00000000000000000, 0.000000000000000000 ) ) ;
#295 = VECTOR ( 'NONE', #369, 1000.000000000000000 ) ;
#296 = DIRECTION ( 'NONE',  ( 1.000000000000000000, 0.000000000000000000, 0.000000000000000000 ) ) ;
#297 = CARTESIAN_POINT ( 'NONE',  ( 0.000000000000000000, 40.00000000000000000, 10.00000000000000000 ) ) ;
#298 = DIRECTION ( 'NONE',  ( 0.000000000000000000, 0.000000000000000000, 1.000000000000000000 ) ) ;
#299 =( NAMED_UNIT ( * ) PLANE_ANGLE_UNIT ( ) SI_UNIT ( $, .RADIAN. ) );
#300 = CARTESIAN_POINT ( 'NONE',  ( 4.499999999999997335, 40.00000000000000000, 0.000000000000000000 ) ) ;
#301 = VECTOR ( 'NONE', #103, 1000.000000000000000 ) ;
#302 = DIRECTION ( 'NONE',  ( -0.000000000000000000, -0.000000000000000000, -1.000000000000000000 ) ) ;
#303 = AXIS2_PLACEMENT_3D ( 'NONE', #399, #213, #3 ) ;
#304 = CARTESIAN_POINT ( 'NONE',  ( 0.000000000000000000, 0.000000000000000000, 0.000000000000000000 ) ) ;
#305 = EDGE_CURVE ( 'NONE', #169, #45, #136, .T. ) ;
#306 = FACE_OUTER_BOUND ( 'NONE', #77, .T. ) ;
#307 = VERTEX_POINT ( 'NONE', #231 ) ;
#308 = CARTESIAN_POINT ( 'NONE',  ( 0.000000000000000000, 80.00000000000000000, 10.00000000000000000 ) ) ;
#309 = VERTEX_POINT ( 'NONE', #98 ) ;
#310 = AXIS2_PLACEMENT_3D ( 'NONE', #226, #224, #17 ) ;
#311 = CARTESIAN_POINT ( 'NONE',  ( -11.00000000000000000, 0.000000000000000000, 0.000000000000000000 ) ) ;
#312 = EDGE_LOOP ( 'NONE', ( #102, #10, #349, #314 ) ) ;
#313 = FILL_AREA_STYLE ('',( #377 ) ) ;
#314 = ORIENTED_EDGE ( 'NONE', *, *, #386, .T. ) ;
#315 = CIRCLE ( 'NONE', #428, 30.00000000000000000 ) ;
#316 = CARTESIAN_POINT ( 'NONE',  ( -4.499999999999997335, 40.00000000000000000, 0.000000000000000000 ) ) ;
#317 = VERTEX_POINT ( 'NONE', #311 ) ;
#318 = AXIS2_PLACEMENT_3D ( 'NONE', #211, #37, #149 ) ;
#319 = LINE ( 'NONE', #174, #183 ) ;
#320 = EDGE_LOOP ( 'NONE', ( #186, #344, #276, #216 ) ) ;
#321 = VERTEX_POINT ( 'NONE', #388 ) ;
#322 = CARTESIAN_POINT ( 'NONE',  ( 0.000000000000000000, 0.000000000000000000, 0.000000000000000000 ) ) ;
#323 = ORIENTED_EDGE ( 'NONE', *, *, #364, .F. ) ;
#324 = STYLED_ITEM ( 'NONE', ( #385 ), #264 ) ;
#325 = ADVANCED_FACE ( 'NONE', ( #44 ), #76, .F. ) ;
#326 = LINE ( 'NONE', #207, #168 ) ;
#327 = VERTEX_POINT ( 'NONE', #215 ) ;
#328 = DIRECTION ( 'NONE',  ( 1.000000000000000000, 0.000000000000000000, 0.000000000000000000 ) ) ;
#329 = CARTESIAN_POINT ( 'NONE',  ( 30.00000000000000000, 80.00000000000000000, 10.00000000000000000 ) ) ;
#330 = APPLICATION_PROTOCOL_DEFINITION ( 'draft international standard', 'automotive_design', 1998, #449 ) ;
#331 = AXIS2_PLACEMENT_3D ( 'NONE', #155, #442, #292 ) ;
#332 = AXIS2_PLACEMENT_3D ( 'NONE', #142, #285, #244 ) ;
#333 = FACE_OUTER_BOUND ( 'NONE', #39, .T. ) ;
#334 = EDGE_CURVE ( 'NONE', #400, #357, #401, .T. ) ;
#335 = AXIS2_PLACEMENT_3D ( 'NONE', #90, #162, #229 ) ;
#336 = CARTESIAN_POINT ( 'NONE',  ( 11.00000000000000000, 80.00000000000000000, 10.00000000000000000 ) ) ;
#337 = EDGE_CURVE ( 'NONE', #109, #114, #319, .T. ) ;
#338 = DIRECTION ( 'NONE',  ( -1.000000000000000000, 0.000000000000000000, 0.000000000000000000 ) ) ;
#339 = DIRECTION ( 'NONE',  ( -0.000000000000000000, -0.000000000000000000, -1.000000000000000000 ) ) ;
#340 = EDGE_CURVE ( 'NONE', #109, #65, #118, .T. ) ;
#341 = AXIS2_PLACEMENT_3D ( 'NONE', #445, #222, #82 ) ;
#342 =( NAMED_UNIT ( * ) PLANE_ANGLE_UNIT ( ) SI_UNIT ( $, .RADIAN. ) );
#343 = SHAPE_REPRESENTATION ( 'Link 3', ( #408, #331, #26 ), #157 ) ;
#344 = ORIENTED_EDGE ( 'NONE', *, *, #305, .T. ) ;
#345 = FACE_BOUND ( 'NONE', #235, .T. ) ;
#346 = ORIENTED_EDGE ( 'NONE', *, *, #437, .F. ) ;
#347 = CARTESIAN_POINT ( 'NONE',  ( 30.00000000000000000, 80.00000000000000000, 10.00000000000000000 ) ) ;
#348 = AXIS2_PLACEMENT_3D ( 'NONE', #125, #261, #409 ) ;
#349 = ORIENTED_EDGE ( 'NONE', *, *, #418, .F. ) ;
#350 = EDGE_CURVE ( 'NONE', #309, #28, #326, .T. ) ;
#351 = PLANE ( 'NONE',  #410 ) ;
#352 = ORIENTED_EDGE ( 'NONE', *, *, #40, .F. ) ;
#353 = DIRECTION ( 'NONE',  ( -0.000000000000000000, -1.000000000000000000, -0.000000000000000000 ) ) ;
#354 = ORIENTED_EDGE ( 'NONE', *, *, #268, .T. ) ;
#355 = LINE ( 'NONE', #365, #87 ) ;
#356 = EDGE_CURVE ( 'NONE', #28, #434, #219, .T. ) ;
#357 = VERTEX_POINT ( 'NONE', #72 ) ;
#358 = CIRCLE ( 'NONE', #159, 30.00000000000000000 ) ;
#359 = PRODUCT ( 'Link 3', 'Link 3', '', ( #253 ) ) ;
#360 = DIRECTION ( 'NONE',  ( -0.000000000000000000, -0.000000000000000000, -1.000000000000000000 ) ) ;
#361 = ORIENTED_EDGE ( 'NONE', *, *, #334, .F. ) ;
#362 = DIRECTION ( 'NONE',  ( 1.000000000000000000, 0.000000000000000000, 0.000000000000000000 ) ) ;
#363 = ORIENTED_EDGE ( 'NONE', *, *, #356, .F. ) ;
#364 = EDGE_CURVE ( 'NONE', #45, #387, #315, .T. ) ;
#365 = CARTESIAN_POINT ( 'NONE',  ( -30.00000000000000000, 0.000000000000000000, 10.00000000000000000 ) ) ;
#366 = ORIENTED_EDGE ( 'NONE', *, *, #337, .T. ) ;
#367 = SHAPE_REPRESENTATION_RELATIONSHIP ( 'NONE' , 'NONE' ,  #441, #150 ) ;
#368 = CARTESIAN_POINT ( 'NONE',  ( 11.00000000000000000, 80.00000000000000000, 0.000000000000000000 ) ) ;
#369 = DIRECTION ( 'NONE',  ( 0.000000000000000000, 1.000000000000000000, 0.000000000000000000 ) ) ;
#370 =( NAMED_UNIT ( * ) SI_UNIT ( $, .STERADIAN. ) SOLID_ANGLE_UNIT ( ) );
#371 = EDGE_CURVE ( 'NONE', #79, #317, #457, .T. ) ;
#372 = DIRECTION ( 'NONE',  ( -0.000000000000000000, -0.000000000000000000, -1.000000000000000000 ) ) ;
#373 = CONTEXT_DEPENDENT_SHAPE_REPRESENTATION ( #246, #147 ) ;
#374 = DIRECTION ( 'NONE',  ( 0.000000000000000000, 0.000000000000000000, -1.000000000000000000 ) ) ;
#375 = FACE_OUTER_BOUND ( 'NONE', #184, .T. ) ;
#376 = EDGE_CURVE ( 'NONE', #132, #327, #145, .T. ) ;
#377 = FILL_AREA_STYLE_COLOUR ( '', #256 ) ;
#378 =( GEOMETRIC_REPRESENTATION_CONTEXT ( 3 ) GLOBAL_UNCERTAINTY_ASSIGNED_CONTEXT ( ( #137 ) ) GLOBAL_UNIT_ASSIGNED_CONTEXT ( ( #148, #221, #370 ) ) REPRESENTATION_CONTEXT ( 'NONE', 'WORKASPACE' ) );
#379 = AXIS2_PLACEMENT_3D ( 'NONE', #58, #302, #436 ) ;
#380 = CARTESIAN_POINT ( 'NONE',  ( -11.00000000000000000, 80.00000000000000000, 0.000000000000000000 ) ) ;
#381 = PRESENTATION_LAYER_ASSIGNMENT (  '', '', ( #324 ) ) ;
#382 = EDGE_LOOP ( 'NONE', ( #279, #433, #117, #346 ) ) ;
#383 = LINE ( 'NONE', #347, #68 ) ;
#384 = EDGE_LOOP ( 'NONE', ( #27, #177, #248, #267 ) ) ;
#385 = PRESENTATION_STYLE_ASSIGNMENT (( #92 ) ) ;
#386 = EDGE_CURVE ( 'NONE', #307, #327, #182, .T. ) ;
#387 = VERTEX_POINT ( 'NONE', #179 ) ;
#388 = CARTESIAN_POINT ( 'NONE',  ( 30.00000000000000000, 80.00000000000000000, 0.000000000000000000 ) ) ;
#389 = CIRCLE ( 'NONE', #310, 11.00000000000000000 ) ;
#390 =( GEOMETRIC_REPRESENTATION_CONTEXT ( 3 ) GLOBAL_UNCERTAINTY_ASSIGNED_CONTEXT ( ( #283 ) ) GLOBAL_UNIT_ASSIGNED_CONTEXT ( ( #30, #342, #96 ) ) REPRESENTATION_CONTEXT ( 'NONE', 'WORKASPACE' ) );
#391 = DIRECTION ( 'NONE',  ( 0.000000000000000000, 0.000000000000000000, 1.000000000000000000 ) ) ;
#392 = DIRECTION ( 'NONE',  ( 0.000000000000000000, 0.000000000000000000, 1.000000000000000000 ) ) ;
#393 = ORIENTED_EDGE ( 'NONE', *, *, #423, .F. ) ;
#394 = AXIS2_PLACEMENT_3D ( 'NONE', #421, #242, #209 ) ;
#395 = DIRECTION ( 'NONE',  ( -1.000000000000000000, 0.000000000000000000, 0.000000000000000000 ) ) ;
#396 = ORIENTED_EDGE ( 'NONE', *, *, #48, .F. ) ;
#397 = AXIS2_PLACEMENT_3D ( 'NONE', #156, #190, #374 ) ;
#398 = ORIENTED_EDGE ( 'NONE', *, *, #412, .F. ) ;
#399 = CARTESIAN_POINT ( 'NONE',  ( 30.00000000000000000, 0.000000000000000000, 10.00000000000000000 ) ) ;
#400 = VERTEX_POINT ( 'NONE', #152 ) ;
#401 = CIRCLE ( 'NONE', #273, 11.00000000000000000 ) ;
#402 = APPLICATION_PROTOCOL_DEFINITION ( 'draft international standard', 'automotive_design', 1998, #178 ) ;
#403 = ORIENTED_EDGE ( 'NONE', *, *, #371, .T. ) ;
#404 = VECTOR ( 'NONE', #196, 1000.000000000000000 ) ;
#405 = FACE_OUTER_BOUND ( 'NONE', #205, .T. ) ;
#406 = CARTESIAN_POINT ( 'NONE',  ( -4.499999999999997335, 40.00000000000000000, 10.00000000000000000 ) ) ;
#407 =( LENGTH_UNIT ( ) NAMED_UNIT ( * ) SI_UNIT ( .MILLI., .METRE. ) );
#408 = AXIS2_PLACEMENT_3D ( 'NONE', #258, #289, #119 ) ;
#409 = DIRECTION ( 'NONE',  ( 1.000000000000000000, 0.000000000000000000, 0.000000000000000000 ) ) ;
#410 = AXIS2_PLACEMENT_3D ( 'NONE', #198, #100, #172 ) ;
#411 = CARTESIAN_POINT ( 'NONE',  ( 0.000000000000000000, 0.000000000000000000, 0.000000000000000000 ) ) ;
#412 = EDGE_CURVE ( 'NONE', #65, #109, #444, .T. ) ;
#413 = DIRECTION ( 'NONE',  ( -0.000000000000000000, -0.000000000000000000, -1.000000000000000000 ) ) ;
#414 = SURFACE_STYLE_FILL_AREA ( #313 ) ;
#415 = ORIENTED_EDGE ( 'NONE', *, *, #371, .F. ) ;
#416 = CYLINDRICAL_SURFACE ( 'NONE', #447, 11.00000000000000000 ) ;
#417 = EDGE_LOOP ( 'NONE', ( #131, #403 ) ) ;
#418 = EDGE_CURVE ( 'NONE', #307, #169, #202, .T. ) ;
#419 = FACE_BOUND ( 'NONE', #282, .T. ) ;
#420 = FACE_BOUND ( 'NONE', #417, .T. ) ;
#421 = CARTESIAN_POINT ( 'NONE',  ( 0.000000000000000000, 80.00000000000000000, 10.00000000000000000 ) ) ;
#422 = ORIENTED_EDGE ( 'NONE', *, *, #337, .F. ) ;
#423 = EDGE_CURVE ( 'NONE', #387, #307, #355, .T. ) ;
#424 = CARTESIAN_POINT ( 'NONE',  ( 0.000000000000000000, 80.00000000000000000, 10.00000000000000000 ) ) ;
#425 = EDGE_LOOP ( 'NONE', ( #254, #270 ) ) ;
#426 = CARTESIAN_POINT ( 'NONE',  ( -30.00000000000000000, 0.000000000000000000, 10.00000000000000000 ) ) ;
#427 = ORIENTED_EDGE ( 'NONE', *, *, #437, .T. ) ;
#428 = AXIS2_PLACEMENT_3D ( 'NONE', #6, #429, #112 ) ;
#429 = DIRECTION ( 'NONE',  ( 0.000000000000000000, 0.000000000000000000, 1.000000000000000000 ) ) ;
#430 = FACE_OUTER_BOUND ( 'NONE', #312, .T. ) ;
#431 = CYLINDRICAL_SURFACE ( 'NONE', #59, 30.00000000000000000 ) ;
#432 = EDGE_CURVE ( 'NONE', #114, #252, #139, .T. ) ;
#433 = ORIENTED_EDGE ( 'NONE', *, *, #350, .T. ) ;
#434 = VERTEX_POINT ( 'NONE', #316 ) ;
#435 = PRODUCT_CONTEXT ( 'NONE', #178, 'mechanical' ) ;
#436 = DIRECTION ( 'NONE',  ( -1.000000000000000000, 0.000000000000000000, 0.000000000000000000 ) ) ;
#437 = EDGE_CURVE ( 'NONE', #63, #434, #110, .T. ) ;
#438 = AXIS2_PLACEMENT_3D ( 'NONE', #297, #163, #84 ) ;
#439 = DIRECTION ( 'NONE',  ( 1.000000000000000000, 0.000000000000000000, 0.000000000000000000 ) ) ;
#440 = DIRECTION ( 'NONE',  ( 0.000000000000000000, 0.000000000000000000, 1.000000000000000000 ) ) ;
#441 = SHAPE_REPRESENTATION ( 'Tercer eslabon pared', ( #43 ), #378 ) ;
#442 = DIRECTION ( 'NONE',  ( 0.000000000000000000, 0.000000000000000000, 1.000000000000000000 ) ) ;
#443 = DIRECTION ( 'NONE',  ( -0.000000000000000000, -0.000000000000000000, -1.000000000000000000 ) ) ;
#444 = CIRCLE ( 'NONE', #394, 11.00000000000000000 ) ;
#445 = CARTESIAN_POINT ( 'NONE',  ( 0.000000000000000000, 40.00000000000000000, 10.00000000000000000 ) ) ;
#446 = CIRCLE ( 'NONE', #438, 4.499999999999997335 ) ;
#447 = AXIS2_PLACEMENT_3D ( 'NONE', #308, #138, #66 ) ;
#448 = CARTESIAN_POINT ( 'NONE',  ( 11.00000000000000000, 1.347111479062088405E-15, 0.000000000000000000 ) ) ;
#449 = APPLICATION_CONTEXT ( 'automotive_design' ) ;
#450 = DIRECTION ( 'NONE',  ( 0.000000000000000000, 0.000000000000000000, 1.000000000000000000 ) ) ;
#451 = DIRECTION ( 'NONE',  ( 1.000000000000000000, 0.000000000000000000, 0.000000000000000000 ) ) ;
#452 = ADVANCED_FACE ( 'NONE', ( #278 ), #431, .T. ) ;
#453 = CIRCLE ( 'NONE', #164, 4.499999999999997335 ) ;
#454 = ORIENTED_EDGE ( 'NONE', *, *, #340, .F. ) ;
#455 = ORIENTED_EDGE ( 'NONE', *, *, #334, .T. ) ;
#456 = CARTESIAN_POINT ( 'NONE',  ( -11.00000000000000000, 0.000000000000000000, 10.00000000000000000 ) ) ;
#457 = CIRCLE ( 'NONE', #108, 11.00000000000000000 ) ;
#458 = NEXT_ASSEMBLY_USAGE_OCCURRENCE ( 'NAUO1', ' ', ' ', #123, #249, $ ) ;
#459 = NEXT_ASSEMBLY_USAGE_OCCURRENCE ( 'NAUO2', ' ', ' ', #123, #249, $ ) ;
ENDSEC;
END-ISO-10303-21;
