ISO-10303-21;
HEADER;
FILE_DESCRIPTION (( 'STEP AP214' ),
    '1' );
FILE_NAME ('Link 2.STEP',
    '2026-07-17T02:33:37',
    ( '' ),
    ( '' ),
    'SwSTEP 2.0',
    'SolidWorks 2025',
    '' );
FILE_SCHEMA (( 'AUTOMOTIVE_DESIGN' ));
ENDSEC;

DATA;
#1 = PRODUCT_DEFINITION_SHAPE ( 'NONE', 'NONE',  #381 ) ;
#2 = CARTESIAN_POINT ( 'NONE',  ( 0.000000000000000000, 100.0000000000000000, 0.000000000000000000 ) ) ;
#3 = AXIS2_PLACEMENT_3D ( 'NONE', #385, #328, #71 ) ;
#4 = ORIENTED_EDGE ( 'NONE', *, *, #309, .T. ) ;
#5 = AXIS2_PLACEMENT_3D ( 'NONE', #201, #138, #411 ) ;
#6 =( NAMED_UNIT ( * ) SI_UNIT ( $, .STERADIAN. ) SOLID_ANGLE_UNIT ( ) );
#7 = DIRECTION ( 'NONE',  ( 1.000000000000000000, 0.000000000000000000, 0.000000000000000000 ) ) ;
#8 = ORIENTED_EDGE ( 'NONE', *, *, #25, .T. ) ;
#9 = EDGE_CURVE ( 'NONE', #79, #398, #237, .T. ) ;
#10 = FACE_BOUND ( 'NONE', #442, .T. ) ;
#11 = ORIENTED_EDGE ( 'NONE', *, *, #414, .F. ) ;
#12 = DIRECTION ( 'NONE',  ( 1.000000000000000000, 0.000000000000000000, 0.000000000000000000 ) ) ;
#13 = VERTEX_POINT ( 'NONE', #234 ) ;
#14 = DIRECTION ( 'NONE',  ( 0.000000000000000000, 0.000000000000000000, 1.000000000000000000 ) ) ;
#15 = EDGE_CURVE ( 'NONE', #74, #13, #437, .T. ) ;
#16 = CARTESIAN_POINT ( 'NONE',  ( 0.000000000000000000, 0.000000000000000000, 0.000000000000000000 ) ) ;
#17 = ITEM_DEFINED_TRANSFORMATION ( 'NONE', 'NONE', #338,  #405 ) ;
#18 = VERTEX_POINT ( 'NONE', #54 ) ;
#19 = LINE ( 'NONE', #24, #288 ) ;
#20 = EDGE_LOOP ( 'NONE', ( #386, #180, #183, #91 ) ) ;
#21 = DIRECTION ( 'NONE',  ( 1.000000000000000000, 0.000000000000000000, -0.000000000000000000 ) ) ;
#22 = CIRCLE ( 'NONE', #305, 11.00000000000000000 ) ;
#23 = AXIS2_PLACEMENT_3D ( 'NONE', #192, #266, #301 ) ;
#24 = CARTESIAN_POINT ( 'NONE',  ( -30.00000000000000000, 0.000000000000000000, 10.00000000000000000 ) ) ;
#25 = EDGE_CURVE ( 'NONE', #59, #353, #198, .T. ) ;
#26 = FACE_BOUND ( 'NONE', #194, .T. ) ;
#27 = DIRECTION ( 'NONE',  ( -0.000000000000000000, -0.000000000000000000, -1.000000000000000000 ) ) ;
#28 = ADVANCED_FACE ( 'NONE', ( #307 ), #130, .F. ) ;
#29 = CARTESIAN_POINT ( 'NONE',  ( 0.000000000000000000, 40.00000000000000000, 10.00000000000000000 ) ) ;
#30 = AXIS2_PLACEMENT_3D ( 'NONE', #16, #299, #339 ) ;
#31 = LINE ( 'NONE', #98, #343 ) ;
#32 = DIRECTION ( 'NONE',  ( -0.000000000000000000, -0.000000000000000000, -1.000000000000000000 ) ) ;
#33 = CIRCLE ( 'NONE', #443, 30.00000000000000000 ) ;
#34 = DIRECTION ( 'NONE',  ( 1.000000000000000000, 0.000000000000000000, 0.000000000000000000 ) ) ;
#35 = DIRECTION ( 'NONE',  ( -1.000000000000000000, 0.000000000000000000, 0.000000000000000000 ) ) ;
#36 = ORIENTED_EDGE ( 'NONE', *, *, #172, .T. ) ;
#37 = PRODUCT_DEFINITION_CONTEXT ( 'detailed design', #80, 'design' ) ;
#38 = DIRECTION ( 'NONE',  ( 1.000000000000000000, 0.000000000000000000, 0.000000000000000000 ) ) ;
#39 = VERTEX_POINT ( 'NONE', #128 ) ;
#40 = CARTESIAN_POINT ( 'NONE',  ( 0.000000000000000000, 0.000000000000000000, 0.000000000000000000 ) ) ;
#41 = PLANE ( 'NONE',  #87 ) ;
#42 = EDGE_CURVE ( 'NONE', #353, #13, #389, .T. ) ;
#43 = AXIS2_PLACEMENT_3D ( 'NONE', #302, #324, #12 ) ;
#44 = ORIENTED_EDGE ( 'NONE', *, *, #235, .T. ) ;
#45 = CARTESIAN_POINT ( 'NONE',  ( 30.00000000000000000, 100.0000000000000000, 10.00000000000000000 ) ) ;
#46 = DIRECTION ( 'NONE',  ( 0.000000000000000000, 0.000000000000000000, 1.000000000000000000 ) ) ;
#47 = DIRECTION ( 'NONE',  ( 0.000000000000000000, 1.000000000000000000, 0.000000000000000000 ) ) ;
#48 = EDGE_LOOP ( 'NONE', ( #304, #11 ) ) ;
#49 = PRODUCT_DEFINITION_SHAPE ( 'NONE', 'NONE',  #160 ) ;
#50 = CARTESIAN_POINT ( 'NONE',  ( -49.25232137508351116, -68.65913227805108932, 930.0000000000075033 ) ) ;
#51 = ORIENTED_EDGE ( 'NONE', *, *, #225, .T. ) ;
#52 = APPLICATION_PROTOCOL_DEFINITION ( 'draft international standard', 'automotive_design', 1998, #129 ) ;
#53 = ORIENTED_EDGE ( 'NONE', *, *, #172, .F. ) ;
#54 = CARTESIAN_POINT ( 'NONE',  ( -30.00000000000000000, 0.000000000000000000, 10.00000000000000000 ) ) ;
#55 = AXIS2_PLACEMENT_3D ( 'NONE', #310, #342, #315 ) ;
#56 = DIRECTION ( 'NONE',  ( 1.000000000000000000, 0.000000000000000000, 0.000000000000000000 ) ) ;
#57 = DIRECTION ( 'NONE',  ( 1.000000000000000000, 0.000000000000000000, 0.000000000000000000 ) ) ;
#58 = CARTESIAN_POINT ( 'NONE',  ( 0.000000000000000000, 100.0000000000000000, 10.00000000000000000 ) ) ;
#59 = VERTEX_POINT ( 'NONE', #337 ) ;
#60 = CARTESIAN_POINT ( 'NONE',  ( -11.00000000000000000, 0.000000000000000000, 10.00000000000000000 ) ) ;
#61 = EDGE_CURVE ( 'NONE', #18, #404, #19, .T. ) ;
#62 = VECTOR ( 'NONE', #47, 1000.000000000000000 ) ;
#63 = CARTESIAN_POINT ( 'NONE',  ( 30.00000000000000000, 0.000000000000000000, 10.00000000000000000 ) ) ;
#64 = AXIS2_PLACEMENT_3D ( 'NONE', #347, #278, #308 ) ;
#65 = AXIS2_PLACEMENT_3D ( 'NONE', #401, #430, #56 ) ;
#66 =( GEOMETRIC_REPRESENTATION_CONTEXT ( 3 ) GLOBAL_UNCERTAINTY_ASSIGNED_CONTEXT ( ( #314 ) ) GLOBAL_UNIT_ASSIGNED_CONTEXT ( ( #188, #149, #223 ) ) REPRESENTATION_CONTEXT ( 'NONE', 'WORKASPACE' ) );
#67 = DIRECTION ( 'NONE',  ( -0.000000000000000000, -0.000000000000000000, -1.000000000000000000 ) ) ;
#68 = DIRECTION ( 'NONE',  ( 0.000000000000000000, 0.000000000000000000, 1.000000000000000000 ) ) ;
#69 = ADVANCED_FACE ( 'NONE', ( #303 ), #233, .F. ) ;
#70 = CIRCLE ( 'NONE', #174, 30.00000000000000000 ) ;
#71 = DIRECTION ( 'NONE',  ( -1.000000000000000000, 0.000000000000000000, 0.000000000000000000 ) ) ;
#72 = ORIENTED_EDGE ( 'NONE', *, *, #15, .F. ) ;
#73 = CARTESIAN_POINT ( 'NONE',  ( 0.000000000000000000, 100.0000000000000000, 10.00000000000000000 ) ) ;
#74 = VERTEX_POINT ( 'NONE', #441 ) ;
#75 = ADVANCED_FACE ( 'NONE', ( #125, #123, #273, #26 ), #406, .F. ) ;
#76 = FACE_OUTER_BOUND ( 'NONE', #395, .T. ) ;
#77 = ORIENTED_EDGE ( 'NONE', *, *, #240, .F. ) ;
#78 = DIRECTION ( 'NONE',  ( -0.000000000000000000, -0.000000000000000000, -1.000000000000000000 ) ) ;
#79 = VERTEX_POINT ( 'NONE', #407 ) ;
#80 = APPLICATION_CONTEXT ( 'automotive_design' ) ;
#81 = LINE ( 'NONE', #110, #271 ) ;
#82 = ORIENTED_EDGE ( 'NONE', *, *, #209, .T. ) ;
#83 = APPLICATION_PROTOCOL_DEFINITION ( 'draft international standard', 'automotive_design', 1998, #256 ) ;
#84 = EDGE_CURVE ( 'NONE', #402, #18, #121, .T. ) ;
#85 = ORIENTED_EDGE ( 'NONE', *, *, #42, .F. ) ;
#86 = SURFACE_STYLE_FILL_AREA ( #162 ) ;
#87 = AXIS2_PLACEMENT_3D ( 'NONE', #207, #146, #150 ) ;
#88 = ORIENTED_EDGE ( 'NONE', *, *, #440, .T. ) ;
#89 = AXIS2_PLACEMENT_3D ( 'NONE', #276, #340, #21 ) ;
#90 = DIRECTION ( 'NONE',  ( -0.000000000000000000, -0.000000000000000000, -1.000000000000000000 ) ) ;
#91 = ORIENTED_EDGE ( 'NONE', *, *, #291, .F. ) ;
#92 = EDGE_CURVE ( 'NONE', #287, #363, #218, .T. ) ;
#93 = CARTESIAN_POINT ( 'NONE',  ( 0.000000000000000000, 100.0000000000000000, 0.000000000000000000 ) ) ;
#94 = DIRECTION ( 'NONE',  ( -1.000000000000000000, 0.000000000000000000, 0.000000000000000000 ) ) ;
#95 = PRESENTATION_STYLE_ASSIGNMENT (( #164 ) ) ;
#96 = CARTESIAN_POINT ( 'NONE',  ( 4.499999999999997335, 40.00000000000000000, 10.00000000000000000 ) ) ;
#97 = EDGE_CURVE ( 'NONE', #109, #252, #418, .T. ) ;
#98 = CARTESIAN_POINT ( 'NONE',  ( -4.499999999999997335, 40.00000000000000000, 10.00000000000000000 ) ) ;
#99 = CARTESIAN_POINT ( 'NONE',  ( -11.00000000000000000, 100.0000000000000000, 10.00000000000000000 ) ) ;
#100 = CIRCLE ( 'NONE', #202, 4.499999999999997335 ) ;
#101 = CARTESIAN_POINT ( 'NONE',  ( 0.000000000000000000, 40.00000000000000000, 0.000000000000000000 ) ) ;
#102 = MANIFOLD_SOLID_BREP ( 'Saliente-Extruir1', #373 ) ;
#103 = ADVANCED_FACE ( 'NONE', ( #104 ), #372, .F. ) ;
#104 = FACE_OUTER_BOUND ( 'NONE', #421, .T. ) ;
#105 = DIRECTION ( 'NONE',  ( 0.000000000000000000, 0.000000000000000000, 1.000000000000000000 ) ) ;
#106 = EDGE_LOOP ( 'NONE', ( #82, #51 ) ) ;
#107 = CIRCLE ( 'NONE', #155, 11.00000000000000000 ) ;
#108 = DIRECTION ( 'NONE',  ( -0.000000000000000000, -0.000000000000000000, -1.000000000000000000 ) ) ;
#109 = VERTEX_POINT ( 'NONE', #99 ) ;
#110 = CARTESIAN_POINT ( 'NONE',  ( -30.00000000000000000, 0.000000000000000000, 0.000000000000000000 ) ) ;
#111 = PRODUCT_DEFINITION_SHAPE ( 'NONE', 'NONE',  #459 ) ;
#112 = EDGE_LOOP ( 'NONE', ( #88, #211, #213, #36 ) ) ;
#113 = SHAPE_DEFINITION_REPRESENTATION ( #1, #229 ) ;
#114 = CYLINDRICAL_SURFACE ( 'NONE', #298, 11.00000000000000000 ) ;
#115 = ORIENTED_EDGE ( 'NONE', *, *, #284, .F. ) ;
#116 = CARTESIAN_POINT ( 'NONE',  ( 30.00000000000000000, 100.0000000000000000, 10.00000000000000000 ) ) ;
#117 = AXIS2_PLACEMENT_3D ( 'NONE', #2, #105, #7 ) ;
#118 = EDGE_LOOP ( 'NONE', ( #436, #326, #148, #355 ) ) ;
#119 = CARTESIAN_POINT ( 'NONE',  ( 0.000000000000000000, 0.000000000000000000, 10.00000000000000000 ) ) ;
#120 = EDGE_CURVE ( 'NONE', #287, #423, #31, .T. ) ;
#121 = LINE ( 'NONE', #158, #163 ) ;
#122 = ORIENTED_EDGE ( 'NONE', *, *, #127, .T. ) ;
#123 = FACE_BOUND ( 'NONE', #106, .T. ) ;
#124 = ORIENTED_EDGE ( 'NONE', *, *, #431, .F. ) ;
#125 = FACE_OUTER_BOUND ( 'NONE', #20, .T. ) ;
#126 =( GEOMETRIC_REPRESENTATION_CONTEXT ( 3 ) GLOBAL_UNCERTAINTY_ASSIGNED_CONTEXT ( ( #383 ) ) GLOBAL_UNIT_ASSIGNED_CONTEXT ( ( #199, #134, #344 ) ) REPRESENTATION_CONTEXT ( 'NONE', 'WORKASPACE' ) );
#127 = EDGE_CURVE ( 'NONE', #404, #228, #70, .T. ) ;
#128 = CARTESIAN_POINT ( 'NONE',  ( 4.499999999999997335, 40.00000000000000000, 0.000000000000000000 ) ) ;
#129 = APPLICATION_CONTEXT ( 'automotive_design' ) ;
#130 = CYLINDRICAL_SURFACE ( 'NONE', #243, 11.00000000000000000 ) ;
#131 = DIRECTION ( 'NONE',  ( -1.000000000000000000, 0.000000000000000000, 0.000000000000000000 ) ) ;
#132 = AXIS2_PLACEMENT_3D ( 'NONE', #185, #251, #214 ) ;
#133 = DIRECTION ( 'NONE',  ( 1.000000000000000000, 0.000000000000000000, 0.000000000000000000 ) ) ;
#134 =( NAMED_UNIT ( * ) PLANE_ANGLE_UNIT ( ) SI_UNIT ( $, .RADIAN. ) );
#135 = CARTESIAN_POINT ( 'NONE',  ( 0.000000000000000000, 40.00000000000000000, 0.000000000000000000 ) ) ;
#136 = ADVANCED_FACE ( 'NONE', ( #453 ), #379, .F. ) ;
#137 = CIRCLE ( 'NONE', #206, 11.00000000000000000 ) ;
#138 = DIRECTION ( 'NONE',  ( 1.000000000000000000, 0.000000000000000000, 0.000000000000000000 ) ) ;
#139 = LINE ( 'NONE', #262, #62 ) ;
#140 = DIRECTION ( 'NONE',  ( -0.000000000000000000, -0.000000000000000000, -1.000000000000000000 ) ) ;
#141 = ORIENTED_EDGE ( 'NONE', *, *, #240, .T. ) ;
#142 = CIRCLE ( 'NONE', #64, 30.00000000000000000 ) ;
#143 = CARTESIAN_POINT ( 'NONE',  ( 0.000000000000000000, 0.000000000000000000, 10.00000000000000000 ) ) ;
#144 = EDGE_LOOP ( 'NONE', ( #77, #321, #403, #350 ) ) ;
#145 = AXIS2_PLACEMENT_3D ( 'NONE', #446, #335, #439 ) ;
#146 = DIRECTION ( 'NONE',  ( 0.000000000000000000, 0.000000000000000000, 1.000000000000000000 ) ) ;
#147 = PRODUCT ( 'Link 2', 'Link 2', '', ( #221 ) ) ;
#148 = ORIENTED_EDGE ( 'NONE', *, *, #216, .F. ) ;
#149 =( NAMED_UNIT ( * ) PLANE_ANGLE_UNIT ( ) SI_UNIT ( $, .RADIAN. ) );
#150 = DIRECTION ( 'NONE',  ( 1.000000000000000000, 0.000000000000000000, -0.000000000000000000 ) ) ;
#151 =( REPRESENTATION_RELATIONSHIP ('NONE','NONE', #433, #229 ) REPRESENTATION_RELATIONSHIP_WITH_TRANSFORMATION ( #17 )SHAPE_REPRESENTATION_RELATIONSHIP( ) );
#152 = EDGE_LOOP ( 'NONE', ( #186, #8, #336, #72 ) ) ;
#153 = DIRECTION ( 'NONE',  ( 1.000000000000000000, 0.000000000000000000, 0.000000000000000000 ) ) ;
#154 = ORIENTED_EDGE ( 'NONE', *, *, #166, .T. ) ;
#155 = AXIS2_PLACEMENT_3D ( 'NONE', #419, #68, #280 ) ;
#156 = ORIENTED_EDGE ( 'NONE', *, *, #431, .T. ) ;
#157 = APPLICATION_PROTOCOL_DEFINITION ( 'draft international standard', 'automotive_design', 1998, #80 ) ;
#158 = CARTESIAN_POINT ( 'NONE',  ( -30.00000000000000000, 0.000000000000000000, 10.00000000000000000 ) ) ;
#159 = VERTEX_POINT ( 'NONE', #246 ) ;
#160 = PRODUCT_DEFINITION ( 'UNKNOWN', '', #410, #203 ) ;
#161 = ORIENTED_EDGE ( 'NONE', *, *, #92, .T. ) ;
#162 = FILL_AREA_STYLE ('',( #269 ) ) ;
#163 = VECTOR ( 'NONE', #368, 1000.000000000000000 ) ;
#164 = SURFACE_STYLE_USAGE ( .BOTH. , #366 ) ;
#165 = CARTESIAN_POINT ( 'NONE',  ( 30.00000000000000000, 0.000000000000000000, 10.00000000000000000 ) ) ;
#166 = EDGE_CURVE ( 'NONE', #252, #191, #450, .T. ) ;
#167 = CARTESIAN_POINT ( 'NONE',  ( 11.00000000000000000, 100.0000000000000000, 10.00000000000000000 ) ) ;
#168 = AXIS2_PLACEMENT_3D ( 'NONE', #29, #32, #131 ) ;
#169 = DIRECTION ( 'NONE',  ( -1.000000000000000000, 0.000000000000000000, 0.000000000000000000 ) ) ;
#170 = PLANE ( 'NONE',  #5 ) ;
#171 = DIRECTION ( 'NONE',  ( 0.000000000000000000, 0.000000000000000000, 1.000000000000000000 ) ) ;
#172 = EDGE_CURVE ( 'NONE', #402, #398, #200, .T. ) ;
#173 = DIRECTION ( 'NONE',  ( 0.000000000000000000, 0.000000000000000000, 1.000000000000000000 ) ) ;
#174 = AXIS2_PLACEMENT_3D ( 'NONE', #241, #173, #382 ) ;
#175 = FACE_BOUND ( 'NONE', #48, .T. ) ;
#176 = EDGE_CURVE ( 'NONE', #13, #353, #22, .T. ) ;
#177 = CARTESIAN_POINT ( 'NONE',  ( 0.000000000000000000, 0.000000000000000000, 10.00000000000000000 ) ) ;
#178 = ORIENTED_EDGE ( 'NONE', *, *, #42, .T. ) ;
#179 = CARTESIAN_POINT ( 'NONE',  ( -4.499999999999997335, 40.00000000000000000, 0.000000000000000000 ) ) ;
#180 = ORIENTED_EDGE ( 'NONE', *, *, #440, .F. ) ;
#181 = DIRECTION ( 'NONE',  ( 1.000000000000000000, 0.000000000000000000, 0.000000000000000000 ) ) ;
#182 = CARTESIAN_POINT ( 'NONE',  ( -30.00000000000000000, 100.0000000000000000, 0.000000000000000000 ) ) ;
#183 = ORIENTED_EDGE ( 'NONE', *, *, #9, .F. ) ;
#184 = AXIS2_PLACEMENT_3D ( 'NONE', #58, #408, #400 ) ;
#185 = CARTESIAN_POINT ( 'NONE',  ( 0.000000000000000000, 40.00000000000000000, 10.00000000000000000 ) ) ;
#186 = ORIENTED_EDGE ( 'NONE', *, *, #275, .T. ) ;
#187 = ADVANCED_FACE ( 'NONE', ( #283 ), #170, .F. ) ;
#188 =( LENGTH_UNIT ( ) NAMED_UNIT ( * ) SI_UNIT ( .MILLI., .METRE. ) );
#189 = ORIENTED_EDGE ( 'NONE', *, *, #9, .T. ) ;
#190 = DIRECTION ( 'NONE',  ( 1.000000000000000000, 0.000000000000000000, 0.000000000000000000 ) ) ;
#191 = VERTEX_POINT ( 'NONE', #313 ) ;
#192 = CARTESIAN_POINT ( 'NONE',  ( 0.000000000000000000, 40.00000000000000000, 10.00000000000000000 ) ) ;
#193 = APPLICATION_PROTOCOL_DEFINITION ( 'draft international standard', 'automotive_design', 1998, #239 ) ;
#194 = EDGE_LOOP ( 'NONE', ( #429, #178 ) ) ;
#195 = EDGE_CURVE ( 'NONE', #191, #434, #107, .T. ) ;
#196 = CARTESIAN_POINT ( 'NONE',  ( 11.00000000000000000, 1.347111479062088405E-15, 10.00000000000000000 ) ) ;
#197 = CARTESIAN_POINT ( 'NONE',  ( 0.000000000000000000, 0.000000000000000000, 10.00000000000000000 ) ) ;
#198 = LINE ( 'NONE', #196, #444 ) ;
#199 =( LENGTH_UNIT ( ) NAMED_UNIT ( * ) SI_UNIT ( .MILLI., .METRE. ) );
#200 = LINE ( 'NONE', #277, #260 ) ;
#201 = CARTESIAN_POINT ( 'NONE',  ( -30.00000000000000000, 0.000000000000000000, 10.00000000000000000 ) ) ;
#202 = AXIS2_PLACEMENT_3D ( 'NONE', #101, #413, #454 ) ;
#203 = PRODUCT_DEFINITION_CONTEXT ( 'detailed design', #239, 'design' ) ;
#204 = LINE ( 'NONE', #165, #272 ) ;
#205 = DIRECTION ( 'NONE',  ( -0.000000000000000000, -0.000000000000000000, -1.000000000000000000 ) ) ;
#206 = AXIS2_PLACEMENT_3D ( 'NONE', #73, #210, #38 ) ;
#207 = CARTESIAN_POINT ( 'NONE',  ( 0.000000000000000000, 0.000000000000000000, 10.00000000000000000 ) ) ;
#208 = ORIENTED_EDGE ( 'NONE', *, *, #166, .F. ) ;
#209 = EDGE_CURVE ( 'NONE', #423, #39, #100, .T. ) ;
#210 = DIRECTION ( 'NONE',  ( 0.000000000000000000, 0.000000000000000000, 1.000000000000000000 ) ) ;
#211 = ORIENTED_EDGE ( 'NONE', *, *, #61, .F. ) ;
#212 = FACE_BOUND ( 'NONE', #457, .T. ) ;
#213 = ORIENTED_EDGE ( 'NONE', *, *, #84, .F. ) ;
#214 = DIRECTION ( 'NONE',  ( 1.000000000000000000, 0.000000000000000000, 0.000000000000000000 ) ) ;
#215 = VECTOR ( 'NONE', #227, 1000.000000000000000 ) ;
#216 = EDGE_CURVE ( 'NONE', #159, #331, #204, .T. ) ;
#217 = ORIENTED_EDGE ( 'NONE', *, *, #346, .T. ) ;
#218 = CIRCLE ( 'NONE', #23, 4.499999999999997335 ) ;
#219 = FACE_OUTER_BOUND ( 'NONE', #259, .T. ) ;
#220 = EDGE_LOOP ( 'NONE', ( #231, #154, #268, #115 ) ) ;
#221 = PRODUCT_CONTEXT ( 'NONE', #256, 'mechanical' ) ;
#222 = ORIENTED_EDGE ( 'NONE', *, *, #120, .F. ) ;
#223 =( NAMED_UNIT ( * ) SI_UNIT ( $, .STERADIAN. ) SOLID_ANGLE_UNIT ( ) );
#224 = ORIENTED_EDGE ( 'NONE', *, *, #92, .F. ) ;
#225 = EDGE_CURVE ( 'NONE', #39, #423, #348, .T. ) ;
#226 = AXIS2_PLACEMENT_3D ( 'NONE', #119, #447, #94 ) ;
#227 = DIRECTION ( 'NONE',  ( -0.000000000000000000, -0.000000000000000000, -1.000000000000000000 ) ) ;
#228 = VERTEX_POINT ( 'NONE', #345 ) ;
#229 = SHAPE_REPRESENTATION ( 'Segundo eslabon pared', ( #405 ), #356 ) ;
#230 = DIRECTION ( 'NONE',  ( -0.000000000000000000, -0.000000000000000000, -1.000000000000000000 ) ) ;
#231 = ORIENTED_EDGE ( 'NONE', *, *, #97, .T. ) ;
#232 =( REPRESENTATION_RELATIONSHIP ('NONE','NONE', #433, #229 ) REPRESENTATION_RELATIONSHIP_WITH_TRANSFORMATION ( #255 )SHAPE_REPRESENTATION_RELATIONSHIP( ) );
#233 = CYLINDRICAL_SURFACE ( 'NONE', #145, 4.499999999999997335 ) ;
#234 = CARTESIAN_POINT ( 'NONE',  ( -11.00000000000000000, 0.000000000000000000, 0.000000000000000000 ) ) ;
#235 = EDGE_CURVE ( 'NONE', #331, #402, #142, .T. ) ;
#236 = AXIS2_PLACEMENT_3D ( 'NONE', #320, #286, #295 ) ;
#237 = CIRCLE ( 'NONE', #417, 30.00000000000000000 ) ;
#238 = DIRECTION ( 'NONE',  ( -0.000000000000000000, -0.000000000000000000, -1.000000000000000000 ) ) ;
#239 = APPLICATION_CONTEXT ( 'automotive_design' ) ;
#240 = EDGE_CURVE ( 'NONE', #363, #39, #455, .T. ) ;
#241 = CARTESIAN_POINT ( 'NONE',  ( 0.000000000000000000, 0.000000000000000000, 0.000000000000000000 ) ) ;
#242 = AXIS2_PLACEMENT_3D ( 'NONE', #361, #364, #190 ) ;
#243 = AXIS2_PLACEMENT_3D ( 'NONE', #197, #90, #274 ) ;
#244 = COLOUR_RGB ( '',0.7921568627450980005, 0.8196078431372548767, 0.9333333333333333481 ) ;
#245 = DIRECTION ( 'NONE',  ( 0.000000000000000000, 0.000000000000000000, 1.000000000000000000 ) ) ;
#246 = CARTESIAN_POINT ( 'NONE',  ( 30.00000000000000000, 0.000000000000000000, 10.00000000000000000 ) ) ;
#247 = LINE ( 'NONE', #420, #378 ) ;
#248 = ORIENTED_EDGE ( 'NONE', *, *, #249, .F. ) ;
#249 = EDGE_CURVE ( 'NONE', #159, #228, #374, .T. ) ;
#250 = AXIS2_PLACEMENT_3D ( 'NONE', #319, #422, #354 ) ;
#251 = DIRECTION ( 'NONE',  ( 0.000000000000000000, 0.000000000000000000, 1.000000000000000000 ) ) ;
#252 = VERTEX_POINT ( 'NONE', #167 ) ;
#253 = FACE_OUTER_BOUND ( 'NONE', #270, .T. ) ;
#254 = ORIENTED_EDGE ( 'NONE', *, *, #414, .T. ) ;
#255 = ITEM_DEFINED_TRANSFORMATION ( 'NONE', 'NONE', #43,  #405 ) ;
#256 = APPLICATION_CONTEXT ( 'automotive_design' ) ;
#257 = ADVANCED_FACE ( 'NONE', ( #452 ), #412, .F. ) ;
#258 = CARTESIAN_POINT ( 'NONE',  ( 0.000000000000000000, 100.0000000000000000, 10.00000000000000000 ) ) ;
#259 = EDGE_LOOP ( 'NONE', ( #189, #53, #367, #217 ) ) ;
#260 = VECTOR ( 'NONE', #67, 1000.000000000000000 ) ;
#261 = ADVANCED_FACE ( 'NONE', ( #312 ), #362, .T. ) ;
#262 = CARTESIAN_POINT ( 'NONE',  ( 30.00000000000000000, 0.000000000000000000, 0.000000000000000000 ) ) ;
#263 = ORIENTED_EDGE ( 'NONE', *, *, #397, .F. ) ;
#264 =( LENGTH_UNIT ( ) NAMED_UNIT ( * ) SI_UNIT ( .MILLI., .METRE. ) );
#265 = PRODUCT ( 'Segundo eslabon pared', 'Segundo eslabon pared', '', ( #292 ) ) ;
#266 = DIRECTION ( 'NONE',  ( 0.000000000000000000, 0.000000000000000000, 1.000000000000000000 ) ) ;
#267 = EDGE_CURVE ( 'NONE', #363, #287, #311, .T. ) ;
#268 = ORIENTED_EDGE ( 'NONE', *, *, #309, .F. ) ;
#269 = FILL_AREA_STYLE_COLOUR ( '', #244 ) ;
#270 = EDGE_LOOP ( 'NONE', ( #208, #254, #369, #300 ) ) ;
#271 = VECTOR ( 'NONE', #428, 1000.000000000000000 ) ;
#272 = VECTOR ( 'NONE', #341, 1000.000000000000000 ) ;
#273 = FACE_BOUND ( 'NONE', #399, .T. ) ;
#274 = DIRECTION ( 'NONE',  ( -1.000000000000000000, 0.000000000000000000, 0.000000000000000000 ) ) ;
#275 = EDGE_CURVE ( 'NONE', #74, #59, #365, .T. ) ;
#276 = CARTESIAN_POINT ( 'NONE',  ( 0.000000000000000000, 0.000000000000000000, 0.000000000000000000 ) ) ;
#277 = CARTESIAN_POINT ( 'NONE',  ( -30.00000000000000000, 100.0000000000000000, 10.00000000000000000 ) ) ;
#278 = DIRECTION ( 'NONE',  ( 0.000000000000000000, 0.000000000000000000, 1.000000000000000000 ) ) ;
#279 = PRODUCT_RELATED_PRODUCT_CATEGORY ( 'part', '', ( #147 ) ) ;
#280 = DIRECTION ( 'NONE',  ( 1.000000000000000000, 0.000000000000000000, 0.000000000000000000 ) ) ;
#281 = VECTOR ( 'NONE', #316, 1000.000000000000000 ) ;
#282 = STYLED_ITEM ( 'NONE', ( #95 ), #102 ) ;
#283 = FACE_OUTER_BOUND ( 'NONE', #112, .T. ) ;
#284 = EDGE_CURVE ( 'NONE', #109, #434, #247, .T. ) ;
#285 = LINE ( 'NONE', #45, #387 ) ;
#286 = DIRECTION ( 'NONE',  ( 0.000000000000000000, 0.000000000000000000, 1.000000000000000000 ) ) ;
#287 = VERTEX_POINT ( 'NONE', #359 ) ;
#288 = VECTOR ( 'NONE', #230, 1000.000000000000000 ) ;
#289 = CARTESIAN_POINT ( 'NONE',  ( -11.00000000000000000, 100.0000000000000000, 0.000000000000000000 ) ) ;
#290 = ORIENTED_EDGE ( 'NONE', *, *, #84, .T. ) ;
#291 = EDGE_CURVE ( 'NONE', #228, #79, #139, .T. ) ;
#292 = PRODUCT_CONTEXT ( 'NONE', #129, 'mechanical' ) ;
#293 = CARTESIAN_POINT ( 'NONE',  ( 4.499999999999997335, 40.00000000000000000, 10.00000000000000000 ) ) ;
#294 = ORIENTED_EDGE ( 'NONE', *, *, #15, .T. ) ;
#295 = DIRECTION ( 'NONE',  ( 1.000000000000000000, 0.000000000000000000, 0.000000000000000000 ) ) ;
#296 = ORIENTED_EDGE ( 'NONE', *, *, #209, .F. ) ;
#297 = PRODUCT_DEFINITION_SHAPE ( 'NONE', 'NONE',  #458 ) ;
#298 = AXIS2_PLACEMENT_3D ( 'NONE', #258, #78, #169 ) ;
#299 = DIRECTION ( 'NONE',  ( 0.000000000000000000, 0.000000000000000000, 1.000000000000000000 ) ) ;
#300 = ORIENTED_EDGE ( 'NONE', *, *, #195, .F. ) ;
#301 = DIRECTION ( 'NONE',  ( 1.000000000000000000, 0.000000000000000000, 0.000000000000000000 ) ) ;
#302 = CARTESIAN_POINT ( 'NONE',  ( -49.25232137508351116, -68.65913227805108932, 1000.000000000007503 ) ) ;
#303 = FACE_OUTER_BOUND ( 'NONE', #144, .T. ) ;
#304 = ORIENTED_EDGE ( 'NONE', *, *, #97, .F. ) ;
#305 = AXIS2_PLACEMENT_3D ( 'NONE', #415, #171, #376 ) ;
#306 = DIRECTION ( 'NONE',  ( 0.000000000000000000, 0.000000000000000000, 1.000000000000000000 ) ) ;
#307 = FACE_OUTER_BOUND ( 'NONE', #152, .T. ) ;
#308 = DIRECTION ( 'NONE',  ( 1.000000000000000000, 0.000000000000000000, 0.000000000000000000 ) ) ;
#309 = EDGE_CURVE ( 'NONE', #434, #191, #317, .T. ) ;
#310 = CARTESIAN_POINT ( 'NONE',  ( 0.000000000000000000, 100.0000000000000000, 10.00000000000000000 ) ) ;
#311 = CIRCLE ( 'NONE', #132, 4.499999999999997335 ) ;
#312 = FACE_OUTER_BOUND ( 'NONE', #330, .T. ) ;
#313 = CARTESIAN_POINT ( 'NONE',  ( 11.00000000000000000, 100.0000000000000000, 0.000000000000000000 ) ) ;
#314 = UNCERTAINTY_MEASURE_WITH_UNIT (LENGTH_MEASURE( 1.000000000000000082E-05 ), #188, 'distance_accuracy_value', 'NONE');
#315 = DIRECTION ( 'NONE',  ( -1.000000000000000000, 0.000000000000000000, 0.000000000000000000 ) ) ;
#316 = DIRECTION ( 'NONE',  ( -0.000000000000000000, -0.000000000000000000, -1.000000000000000000 ) ) ;
#317 = CIRCLE ( 'NONE', #117, 11.00000000000000000 ) ;
#318 = ADVANCED_FACE ( 'NONE', ( #219 ), #456, .T. ) ;
#319 = CARTESIAN_POINT ( 'NONE',  ( 30.00000000000000000, 0.000000000000000000, 10.00000000000000000 ) ) ;
#320 = CARTESIAN_POINT ( 'NONE',  ( 0.000000000000000000, 0.000000000000000000, 10.00000000000000000 ) ) ;
#321 = ORIENTED_EDGE ( 'NONE', *, *, #267, .T. ) ;
#322 = DIRECTION ( 'NONE',  ( 1.000000000000000000, 0.000000000000000000, 0.000000000000000000 ) ) ;
#323 = EDGE_LOOP ( 'NONE', ( #426, #370, #294, #85 ) ) ;
#324 = DIRECTION ( 'NONE',  ( 0.000000000000000000, 0.000000000000000000, 1.000000000000000000 ) ) ;
#325 = DIRECTION ( 'NONE',  ( 0.000000000000000000, 0.000000000000000000, 1.000000000000000000 ) ) ;
#326 = ORIENTED_EDGE ( 'NONE', *, *, #346, .F. ) ;
#327 = SHAPE_REPRESENTATION_RELATIONSHIP ( 'NONE' , 'NONE' ,  #229, #380 ) ;
#328 = DIRECTION ( 'NONE',  ( -0.000000000000000000, -0.000000000000000000, -1.000000000000000000 ) ) ;
#329 = ORIENTED_EDGE ( 'NONE', *, *, #216, .T. ) ;
#330 = EDGE_LOOP ( 'NONE', ( #122, #248, #124, #393 ) ) ;
#331 = VERTEX_POINT ( 'NONE', #116 ) ;
#332 = AXIS2_PLACEMENT_3D ( 'NONE', #135, #245, #133 ) ;
#333 = DIRECTION ( 'NONE',  ( -0.000000000000000000, -0.000000000000000000, -1.000000000000000000 ) ) ;
#334 = SHAPE_DEFINITION_REPRESENTATION ( #49, #433 ) ;
#335 = DIRECTION ( 'NONE',  ( -0.000000000000000000, -0.000000000000000000, -1.000000000000000000 ) ) ;
#336 = ORIENTED_EDGE ( 'NONE', *, *, #176, .F. ) ;
#337 = CARTESIAN_POINT ( 'NONE',  ( 11.00000000000000000, 1.347111479062088405E-15, 10.00000000000000000 ) ) ;
#338 = AXIS2_PLACEMENT_3D ( 'NONE', #50, #46, #153 ) ;
#339 = DIRECTION ( 'NONE',  ( 1.000000000000000000, 0.000000000000000000, 0.000000000000000000 ) ) ;
#340 = DIRECTION ( 'NONE',  ( 0.000000000000000000, 0.000000000000000000, 1.000000000000000000 ) ) ;
#341 = DIRECTION ( 'NONE',  ( 0.000000000000000000, 1.000000000000000000, 0.000000000000000000 ) ) ;
#342 = DIRECTION ( 'NONE',  ( -0.000000000000000000, -0.000000000000000000, -1.000000000000000000 ) ) ;
#343 = VECTOR ( 'NONE', #205, 1000.000000000000000 ) ;
#344 =( NAMED_UNIT ( * ) SI_UNIT ( $, .STERADIAN. ) SOLID_ANGLE_UNIT ( ) );
#345 = CARTESIAN_POINT ( 'NONE',  ( 30.00000000000000000, 0.000000000000000000, 0.000000000000000000 ) ) ;
#346 = EDGE_CURVE ( 'NONE', #331, #79, #285, .T. ) ;
#347 = CARTESIAN_POINT ( 'NONE',  ( 0.000000000000000000, 100.0000000000000000, 10.00000000000000000 ) ) ;
#348 = CIRCLE ( 'NONE', #332, 4.499999999999997335 ) ;
#349 = FACE_OUTER_BOUND ( 'NONE', #323, .T. ) ;
#350 = ORIENTED_EDGE ( 'NONE', *, *, #225, .F. ) ;
#351 = ADVANCED_FACE ( 'NONE', ( #175, #76, #212, #10 ), #41, .T. ) ;
#352 = CARTESIAN_POINT ( 'NONE',  ( 0.000000000000000000, 0.000000000000000000, 10.00000000000000000 ) ) ;
#353 = VERTEX_POINT ( 'NONE', #394 ) ;
#354 = DIRECTION ( 'NONE',  ( 0.000000000000000000, 0.000000000000000000, 1.000000000000000000 ) ) ;
#355 = ORIENTED_EDGE ( 'NONE', *, *, #249, .T. ) ;
#356 =( GEOMETRIC_REPRESENTATION_CONTEXT ( 3 ) GLOBAL_UNCERTAINTY_ASSIGNED_CONTEXT ( ( #377 ) ) GLOBAL_UNIT_ASSIGNED_CONTEXT ( ( #264, #427, #6 ) ) REPRESENTATION_CONTEXT ( 'NONE', 'WORKASPACE' ) );
#357 = CONTEXT_DEPENDENT_SHAPE_REPRESENTATION ( #151, #111 ) ;
#358 = MECHANICAL_DESIGN_GEOMETRIC_PRESENTATION_REPRESENTATION (  '', ( #282 ), #126 ) ;
#359 = CARTESIAN_POINT ( 'NONE',  ( -4.499999999999997335, 40.00000000000000000, 10.00000000000000000 ) ) ;
#360 = ORIENTED_EDGE ( 'NONE', *, *, #275, .F. ) ;
#361 = CARTESIAN_POINT ( 'NONE',  ( 0.000000000000000000, 0.000000000000000000, 0.000000000000000000 ) ) ;
#362 = CYLINDRICAL_SURFACE ( 'NONE', #226, 30.00000000000000000 ) ;
#363 = VERTEX_POINT ( 'NONE', #293 ) ;
#364 = DIRECTION ( 'NONE',  ( 0.000000000000000000, 0.000000000000000000, 1.000000000000000000 ) ) ;
#365 = CIRCLE ( 'NONE', #435, 11.00000000000000000 ) ;
#366 = SURFACE_SIDE_STYLE ('',( #86 ) ) ;
#367 = ORIENTED_EDGE ( 'NONE', *, *, #235, .F. ) ;
#368 = DIRECTION ( 'NONE',  ( -0.000000000000000000, -1.000000000000000000, -0.000000000000000000 ) ) ;
#369 = ORIENTED_EDGE ( 'NONE', *, *, #284, .T. ) ;
#370 = ORIENTED_EDGE ( 'NONE', *, *, #397, .T. ) ;
#371 = CIRCLE ( 'NONE', #236, 11.00000000000000000 ) ;
#372 = CYLINDRICAL_SURFACE ( 'NONE', #168, 4.499999999999997335 ) ;
#373 = CLOSED_SHELL ( 'NONE', ( #28, #136, #103, #351, #75, #261, #257, #318, #187, #69, #449, #388 ) ) ;
#374 = LINE ( 'NONE', #63, #424 ) ;
#375 = PRODUCT_RELATED_PRODUCT_CATEGORY ( 'part', '', ( #265 ) ) ;
#376 = DIRECTION ( 'NONE',  ( 1.000000000000000000, 0.000000000000000000, 0.000000000000000000 ) ) ;
#377 = UNCERTAINTY_MEASURE_WITH_UNIT (LENGTH_MEASURE( 1.000000000000000082E-05 ), #264, 'distance_accuracy_value', 'NONE');
#378 = VECTOR ( 'NONE', #390, 1000.000000000000000 ) ;
#379 = CYLINDRICAL_SURFACE ( 'NONE', #55, 11.00000000000000000 ) ;
#380 = ADVANCED_BREP_SHAPE_REPRESENTATION ( '', ( #102, #405 ), #356 ) ;
#381 = PRODUCT_DEFINITION ( 'UNKNOWN', '', #416, #37 ) ;
#382 = DIRECTION ( 'NONE',  ( 1.000000000000000000, 0.000000000000000000, 0.000000000000000000 ) ) ;
#383 = UNCERTAINTY_MEASURE_WITH_UNIT (LENGTH_MEASURE( 1.000000000000000082E-05 ), #199, 'distance_accuracy_value', 'NONE');
#384 = CARTESIAN_POINT ( 'NONE',  ( 11.00000000000000000, 100.0000000000000000, 10.00000000000000000 ) ) ;
#385 = CARTESIAN_POINT ( 'NONE',  ( 0.000000000000000000, 100.0000000000000000, 10.00000000000000000 ) ) ;
#386 = ORIENTED_EDGE ( 'NONE', *, *, #127, .F. ) ;
#387 = VECTOR ( 'NONE', #108, 1000.000000000000000 ) ;
#388 = ADVANCED_FACE ( 'NONE', ( #349 ), #392, .F. ) ;
#389 = CIRCLE ( 'NONE', #30, 11.00000000000000000 ) ;
#390 = DIRECTION ( 'NONE',  ( -0.000000000000000000, -0.000000000000000000, -1.000000000000000000 ) ) ;
#391 = ORIENTED_EDGE ( 'NONE', *, *, #195, .T. ) ;
#392 = CYLINDRICAL_SURFACE ( 'NONE', #451, 11.00000000000000000 ) ;
#393 = ORIENTED_EDGE ( 'NONE', *, *, #61, .T. ) ;
#394 = CARTESIAN_POINT ( 'NONE',  ( 11.00000000000000000, 1.347111479062088405E-15, 0.000000000000000000 ) ) ;
#395 = EDGE_LOOP ( 'NONE', ( #156, #329, #44, #290 ) ) ;
#396 = CARTESIAN_POINT ( 'NONE',  ( -30.00000000000000000, 100.0000000000000000, 10.00000000000000000 ) ) ;
#397 = EDGE_CURVE ( 'NONE', #59, #74, #371, .T. ) ;
#398 = VERTEX_POINT ( 'NONE', #182 ) ;
#399 = EDGE_LOOP ( 'NONE', ( #4, #391 ) ) ;
#400 = DIRECTION ( 'NONE',  ( 1.000000000000000000, 0.000000000000000000, 0.000000000000000000 ) ) ;
#401 = CARTESIAN_POINT ( 'NONE',  ( 0.000000000000000000, 0.000000000000000000, 0.000000000000000000 ) ) ;
#402 = VERTEX_POINT ( 'NONE', #396 ) ;
#403 = ORIENTED_EDGE ( 'NONE', *, *, #120, .T. ) ;
#404 = VERTEX_POINT ( 'NONE', #425 ) ;
#405 = AXIS2_PLACEMENT_3D ( 'NONE', #40, #14, #181 ) ;
#406 = PLANE ( 'NONE',  #89 ) ;
#407 = CARTESIAN_POINT ( 'NONE',  ( 30.00000000000000000, 100.0000000000000000, 0.000000000000000000 ) ) ;
#408 = DIRECTION ( 'NONE',  ( 0.000000000000000000, 0.000000000000000000, 1.000000000000000000 ) ) ;
#409 = VECTOR ( 'NONE', #238, 1000.000000000000000 ) ;
#410 = PRODUCT_DEFINITION_FORMATION_WITH_SPECIFIED_SOURCE ( 'ANY', '', #147, .NOT_KNOWN. ) ;
#411 = DIRECTION ( 'NONE',  ( 0.000000000000000000, 0.000000000000000000, -1.000000000000000000 ) ) ;
#412 = PLANE ( 'NONE',  #250 ) ;
#413 = DIRECTION ( 'NONE',  ( 0.000000000000000000, 0.000000000000000000, 1.000000000000000000 ) ) ;
#414 = EDGE_CURVE ( 'NONE', #252, #109, #137, .T. ) ;
#415 = CARTESIAN_POINT ( 'NONE',  ( 0.000000000000000000, 0.000000000000000000, 0.000000000000000000 ) ) ;
#416 = PRODUCT_DEFINITION_FORMATION_WITH_SPECIFIED_SOURCE ( 'ANY', '', #265, .NOT_KNOWN. ) ;
#417 = AXIS2_PLACEMENT_3D ( 'NONE', #93, #306, #57 ) ;
#418 = CIRCLE ( 'NONE', #184, 11.00000000000000000 ) ;
#419 = CARTESIAN_POINT ( 'NONE',  ( 0.000000000000000000, 100.0000000000000000, 0.000000000000000000 ) ) ;
#420 = CARTESIAN_POINT ( 'NONE',  ( -11.00000000000000000, 100.0000000000000000, 10.00000000000000000 ) ) ;
#421 = EDGE_LOOP ( 'NONE', ( #161, #141, #296, #222 ) ) ;
#422 = DIRECTION ( 'NONE',  ( -1.000000000000000000, 0.000000000000000000, 0.000000000000000000 ) ) ;
#423 = VERTEX_POINT ( 'NONE', #179 ) ;
#424 = VECTOR ( 'NONE', #27, 1000.000000000000000 ) ;
#425 = CARTESIAN_POINT ( 'NONE',  ( -30.00000000000000000, 0.000000000000000000, 0.000000000000000000 ) ) ;
#426 = ORIENTED_EDGE ( 'NONE', *, *, #25, .F. ) ;
#427 =( NAMED_UNIT ( * ) PLANE_ANGLE_UNIT ( ) SI_UNIT ( $, .RADIAN. ) );
#428 = DIRECTION ( 'NONE',  ( -0.000000000000000000, -1.000000000000000000, -0.000000000000000000 ) ) ;
#429 = ORIENTED_EDGE ( 'NONE', *, *, #176, .T. ) ;
#430 = DIRECTION ( 'NONE',  ( 0.000000000000000000, 0.000000000000000000, 1.000000000000000000 ) ) ;
#431 = EDGE_CURVE ( 'NONE', #18, #159, #33, .T. ) ;
#432 = DIRECTION ( 'NONE',  ( 0.000000000000000000, 0.000000000000000000, 1.000000000000000000 ) ) ;
#433 = SHAPE_REPRESENTATION ( 'Link 2', ( #65, #43, #338 ), #66 ) ;
#434 = VERTEX_POINT ( 'NONE', #289 ) ;
#435 = AXIS2_PLACEMENT_3D ( 'NONE', #177, #432, #322 ) ;
#436 = ORIENTED_EDGE ( 'NONE', *, *, #291, .T. ) ;
#437 = LINE ( 'NONE', #60, #215 ) ;
#438 = CONTEXT_DEPENDENT_SHAPE_REPRESENTATION ( #232, #297 ) ;
#439 = DIRECTION ( 'NONE',  ( -1.000000000000000000, 0.000000000000000000, 0.000000000000000000 ) ) ;
#440 = EDGE_CURVE ( 'NONE', #398, #404, #81, .T. ) ;
#441 = CARTESIAN_POINT ( 'NONE',  ( -11.00000000000000000, 0.000000000000000000, 10.00000000000000000 ) ) ;
#442 = EDGE_LOOP ( 'NONE', ( #360, #263 ) ) ;
#443 = AXIS2_PLACEMENT_3D ( 'NONE', #143, #325, #34 ) ;
#444 = VECTOR ( 'NONE', #333, 1000.000000000000000 ) ;
#445 = PRESENTATION_LAYER_ASSIGNMENT (  '', '', ( #282 ) ) ;
#446 = CARTESIAN_POINT ( 'NONE',  ( 0.000000000000000000, 40.00000000000000000, 10.00000000000000000 ) ) ;
#447 = DIRECTION ( 'NONE',  ( -0.000000000000000000, -0.000000000000000000, -1.000000000000000000 ) ) ;
#448 = ORIENTED_EDGE ( 'NONE', *, *, #267, .F. ) ;
#449 = ADVANCED_FACE ( 'NONE', ( #253 ), #114, .F. ) ;
#450 = LINE ( 'NONE', #384, #281 ) ;
#451 = AXIS2_PLACEMENT_3D ( 'NONE', #352, #140, #35 ) ;
#452 = FACE_OUTER_BOUND ( 'NONE', #118, .T. ) ;
#453 = FACE_OUTER_BOUND ( 'NONE', #220, .T. ) ;
#454 = DIRECTION ( 'NONE',  ( 1.000000000000000000, 0.000000000000000000, 0.000000000000000000 ) ) ;
#455 = LINE ( 'NONE', #96, #409 ) ;
#456 = CYLINDRICAL_SURFACE ( 'NONE', #3, 30.00000000000000000 ) ;
#457 = EDGE_LOOP ( 'NONE', ( #224, #448 ) ) ;
#458 = NEXT_ASSEMBLY_USAGE_OCCURRENCE ( 'NAUO1', ' ', ' ', #160, #381, $ ) ;
#459 = NEXT_ASSEMBLY_USAGE_OCCURRENCE ( 'NAUO2', ' ', ' ', #160, #381, $ ) ;
ENDSEC;
END-ISO-10303-21;
